<svg xmlns="http://www.w3.org/2000/svg" xmlns:xlink="http://www.w3.org/1999/xlink" width="1080" zoomAndPan="magnify" viewBox="0 0 810 1439.999935" height="1920" preserveAspectRatio="xMidYMid meet" version="1.2"><defs><filter x="0%" y="0%" width="100%" filterUnits="objectBoundingBox" id="7211a40cba" height="100%"><feColorMatrix values="0 0 0 0 1 0 0 0 0 1 0 0 0 0 1 0 0 0 1 0" type="matrix" in="SourceGraphic"/></filter><clipPath id="04d005592d"><rect x="0" width="810" y="0" height="1226"/></clipPath></defs><g id="18326cb62f"><rect x="0" width="810" y="0" height="1439.999935" style="fill:#ffffff;fill-opacity:1;stroke:none;"/><rect x="0" width="810" y="0" height="1439.999935" style="fill:#ffffff;fill-opacity:1;stroke:none;"/><g mask="url(#a9d9ad58ef)" transform="matrix(1,0,0,1,0,207)"><g clip-path="url(#04d005592d)"><path style=" stroke:none;fill-rule:evenodd;fill:#000000;fill-opacity:1;" d="M 207.890625 2.308594 C 207.277344 2.421875 204.972656 2.824219 202.765625 3.207031 C 171.710938 8.632812 146.125 31.125 139.574219 58.757812 C 138.039062 65.226562 138.195312 80.359375 139.890625 89.5625 C 142.867188 105.730469 143.300781 108.578125 143.5625 113.863281 C 143.765625 117.847656 143.617188 121.617188 143.054688 126.964844 C 140.949219 147.035156 146.328125 157.101562 162.519531 163.378906 L 165.050781 164.359375 L 166.410156 168.382812 C 168.539062 174.699219 169.519531 179.492188 170.019531 185.988281 C 170.925781 197.804688 171.640625 200.578125 174.414062 203.085938 L 175.339844 203.925781 L 173.445312 205.128906 C 170.761719 206.828125 169.472656 208.527344 166.574219 214.191406 C 161.550781 224.015625 160.757812 224.433594 136.363281 230.089844 C 98.652344 238.832031 63.289062 270.8125 46.796875 311.082031 C 42.308594 322.039062 40.742188 329.640625 39.433594 346.773438 C 37.808594 368.070312 36.539062 373.292969 27.441406 396.117188 C 15.738281 425.460938 15.460938 426.804688 14.921875 457.007812 C 14.453125 483.582031 14.101562 487.226562 10.261719 505.332031 C 7.355469 519.03125 7.328125 522.917969 10.082031 526.785156 L 11.007812 528.085938 L 9.019531 530.203125 C 4.195312 535.359375 3.136719 545.15625 5.582031 562.121094 C 8.628906 583.28125 8.582031 588.621094 5.148438 612.472656 C -0.164062 649.3125 0.707031 663.769531 9.332031 681.929688 C 16.472656 696.976562 25.972656 708.71875 38.324219 717.785156 C 42.003906 720.488281 46.863281 724.621094 50.167969 727.878906 C 59.414062 736.984375 63.65625 737.402344 66.613281 729.5 C 69.558594 721.644531 67.839844 713.183594 60.074219 697.292969 C 53.597656 684.046875 51.363281 676.394531 53.191406 673.71875 C 54.328125 672.058594 58.777344 676.582031 64.765625 685.503906 C 79.914062 708.058594 89.9375 681.964844 75.5 657.558594 C 72.59375 652.644531 68.882812 648.351562 62.339844 642.339844 C 48.027344 629.175781 45.574219 624.273438 45.496094 608.664062 C 45.433594 596.542969 46.910156 590.773438 55.292969 570.296875 C 67.292969 540.992188 72.238281 526.570312 79.105469 500.878906 C 80.824219 494.445312 81.351562 487.007812 80.292969 484.003906 L 79.609375 482.054688 L 81.078125 480.664062 C 83.859375 478.03125 86.796875 472.621094 95.542969 454 C 98.394531 447.917969 99.558594 446.015625 99.613281 447.320312 C 99.625 447.503906 99.921875 449.660156 100.273438 452.109375 C 101.613281 461.316406 101.980469 475.019531 101.425781 495.089844 C 100.203125 539.296875 100.480469 550.382812 103.175781 564.472656 C 103.941406 568.476562 104.585938 570.273438 106.25 573.03125 C 106.472656 573.398438 107.167969 574.800781 107.792969 576.152344 C 108.421875 577.496094 109.507812 579.199219 110.210938 579.9375 L 111.492188 581.273438 L 110.464844 582.832031 C 107.472656 587.375 107.167969 592.804688 109.386719 601.980469 C 111.34375 610.066406 111.363281 614.804688 109.484375 623.804688 C 106.542969 637.886719 107.46875 644.945312 112.78125 648.980469 L 114.601562 650.363281 L 113.148438 652.042969 C 105.339844 661.066406 108.914062 680.582031 127.457031 730.253906 C 146.597656 781.523438 149.386719 804.445312 144.363281 869.214844 C 142.0625 898.820312 143.253906 910.835938 149.132812 917.511719 L 150.925781 919.550781 L 149.773438 921.859375 C 147.339844 926.738281 149.015625 931.433594 154.300781 934.546875 L 156.199219 935.664062 L 154.351562 937.738281 C 147.082031 945.902344 147.03125 954.582031 154.160156 970.496094 C 162.9375 990.105469 165.632812 1004.089844 166.648438 1035.34375 C 167.167969 1051.234375 167.40625 1055.769531 168.054688 1062.292969 C 168.886719 1070.550781 170.421875 1079.746094 172.484375 1088.792969 C 176.582031 1106.75 176.4375 1105.847656 176.4375 1113.734375 C 176.4375 1119.792969 176.222656 1122.332031 175.1875 1128.207031 C 172.339844 1144.449219 174.699219 1152.503906 184.53125 1160.082031 L 187.066406 1162.039062 L 185.433594 1162.382812 C 184.535156 1162.570312 180.34375 1163.703125 176.125 1164.90625 C 165.632812 1167.898438 160.625 1169.054688 149.957031 1170.957031 C 144.929688 1171.851562 136.007812 1173.464844 130.125 1174.546875 C 114.796875 1177.359375 113.199219 1177.496094 97.0625 1177.339844 C 81.542969 1177.191406 80.578125 1177.320312 82.539062 1179.277344 C 84.296875 1181.039062 106.953125 1182.011719 117.425781 1180.777344 C 131.328125 1179.140625 159.792969 1173.664062 174.101562 1169.878906 C 193.242188 1164.8125 194.996094 1165.398438 208.128906 1181.210938 C 222.59375 1198.625 233.882812 1205.039062 245.378906 1202.371094 C 260.359375 1198.898438 277.734375 1177.847656 276.863281 1164.238281 C 276.226562 1154.3125 264.199219 1143.449219 249.714844 1139.714844 L 246.753906 1138.949219 L 246.527344 1134.46875 C 246.402344 1132.007812 245.777344 1126.484375 245.136719 1122.195312 C 244.492188 1117.910156 243.667969 1109.59375 243.296875 1103.714844 C 242.925781 1097.835938 242.039062 1087.3125 241.324219 1080.332031 C 240.609375 1073.347656 239.707031 1063.128906 239.316406 1057.617188 C 238.929688 1052.105469 238.078125 1041.082031 237.421875 1033.121094 C 235.863281 1014.164062 235.742188 995.539062 237.082031 982.121094 C 237.863281 974.296875 237.945312 970.917969 237.769531 954.285156 C 237.101562 891.707031 237.382812 880.085938 240.304688 849.398438 C 241.902344 832.589844 241.917969 832.308594 241.988281 808.863281 C 242.023438 795.882812 242.214844 784.28125 242.410156 783.082031 L 242.769531 780.910156 L 243.40625 782.414062 C 244.546875 785.109375 246.554688 792.628906 248.683594 802.183594 C 253.277344 822.835938 256.269531 830.144531 264.914062 841.824219 C 274.90625 855.324219 277.179688 860.570312 281.445312 879.90625 C 285.839844 899.835938 289.632812 907.625 298.570312 915.085938 C 306.65625 921.835938 308.292969 925.75 308.253906 938.253906 C 308.214844 951.546875 306.394531 960.578125 295.011719 1003.945312 C 288.320312 1029.441406 286.105469 1040.621094 279.886719 1080.332031 C 277.5625 1095.152344 275.246094 1109.683594 274.738281 1112.621094 C 272.644531 1124.738281 273.15625 1127.59375 279.398438 1138.609375 C 288.363281 1154.4375 291.375 1168.195312 288.730469 1181.289062 C 286.28125 1193.433594 288.121094 1200.582031 295.621094 1208.078125 C 307.226562 1219.679688 328.875 1221.761719 342.601562 1212.59375 C 344.683594 1211.203125 346.742188 1210.363281 350.9375 1209.195312 C 363.527344 1205.691406 365.773438 1204.769531 376.421875 1198.710938 C 388.605469 1191.785156 393.875 1190.484375 407.980469 1190.921875 C 427.480469 1191.53125 444.292969 1194.816406 468.808594 1202.8125 C 495.828125 1211.625 503.25 1212.234375 525.964844 1207.484375 C 530.054688 1206.628906 533.539062 1205.929688 533.710938 1205.929688 C 533.878906 1205.929688 534.152344 1206.726562 534.316406 1207.695312 C 535.757812 1216.246094 558.828125 1223.285156 571.304688 1218.980469 C 572.773438 1218.476562 574.679688 1217.9375 575.539062 1217.785156 C 577.675781 1217.40625 579.835938 1216.007812 580.839844 1214.363281 L 581.671875 1212.992188 L 587.183594 1213.035156 C 609.375 1213.210938 615.625 1214.152344 625.542969 1218.824219 C 636.085938 1223.796875 639.78125 1224.273438 650.054688 1221.976562 C 653.308594 1221.25 659.085938 1220.222656 662.882812 1219.695312 C 670.683594 1218.617188 674.28125 1217.550781 684.464844 1213.304688 C 700.792969 1206.5 711.675781 1205.050781 728.171875 1207.5 C 733.8125 1208.335938 747.273438 1208.839844 749.335938 1208.292969 C 753.222656 1207.261719 750.085938 1205.371094 741.636719 1203.65625 C 713.902344 1198.023438 700.703125 1199.007812 681.378906 1208.160156 C 670.664062 1213.234375 669.167969 1213.675781 660.433594 1214.386719 C 657.492188 1214.621094 654.164062 1214.945312 653.039062 1215.101562 L 650.992188 1215.386719 L 650.714844 1210.769531 C 650.390625 1205.414062 649.835938 1203.128906 648.390625 1201.214844 L 647.351562 1199.839844 L 648.230469 1198.542969 C 650.441406 1195.269531 650.570312 1194.578125 650.730469 1184.777344 C 650.878906 1175.828125 650.972656 1174.996094 652.839844 1165.621094 C 656.011719 1149.726562 656.398438 1141.761719 654.851562 1124.199219 C 653.972656 1114.242188 654.929688 1106.390625 658.667969 1092.800781 C 661.65625 1081.949219 662.429688 1076.808594 662.894531 1064.742188 C 663.515625 1048.847656 663.75 1047.355469 667.960938 1032.632812 C 673.492188 1013.289062 673.546875 1006.367188 668.226562 1001.046875 L 666.632812 999.453125 L 668.492188 998.050781 L 670.347656 996.652344 L 671.589844 997.953125 C 675.230469 1001.746094 681.378906 1000.554688 686.382812 995.082031 C 705.769531 973.882812 719.925781 901.671875 710.308594 873 C 708.589844 867.875 706.644531 864.222656 701.933594 857.292969 C 692.988281 844.136719 692.152344 841.339844 690.722656 819.605469 C 688.632812 787.957031 683.964844 779.175781 663.105469 767.679688 C 655.449219 763.460938 653.085938 761.835938 650.433594 758.960938 C 647.269531 755.53125 645.425781 749.773438 647.296875 749.179688 C 649.929688 748.34375 656.085938 741.175781 658.769531 735.824219 C 663.421875 726.535156 665.269531 716.878906 666.703125 694.402344 C 667.847656 676.441406 667.335938 672.8125 663.046875 668.53125 C 660.359375 665.839844 660.273438 665.675781 661.605469 665.675781 C 672.945312 665.675781 675.070312 648.675781 664.039062 646.210938 C 657.570312 644.761719 657.28125 644.105469 659.074219 634.898438 C 660.898438 625.523438 660.195312 622.347656 655.75 619.878906 C 652.921875 618.3125 651.507812 618.707031 646.464844 622.476562 C 641.570312 626.132812 641.078125 626.21875 639.324219 623.667969 C 635.347656 617.894531 629.214844 614.988281 625.765625 617.246094 C 622.558594 619.347656 621.132812 624.066406 622.496094 628.066406 L 623.210938 630.167969 L 619.316406 629.878906 C 604.300781 628.765625 591.742188 632.949219 577.222656 643.902344 C 558.445312 658.066406 551.722656 676.9375 559.703125 693.066406 L 561.246094 696.183594 L 560.605469 698.855469 C 557.585938 711.382812 559.226562 731.742188 564.175781 743.324219 C 565.3125 745.984375 566.175781 748.199219 566.101562 748.25 C 565.25 748.808594 547.683594 755.730469 543.386719 757.203125 C 526.160156 763.109375 517.050781 762.683594 493.453125 754.898438 C 481.707031 751.019531 475.105469 744.789062 469.878906 732.636719 C 467.066406 726.101562 464.457031 721.597656 462 719.027344 L 460.417969 717.375 L 462.203125 715.441406 C 473.160156 703.558594 476.148438 672.195312 468.742188 646.742188 C 468.101562 644.539062 466.113281 638.605469 464.316406 633.5625 C 460.238281 622.070312 459.160156 617.820312 457.1875 605.429688 C 454.382812 587.765625 451.421875 578.671875 446.261719 571.816406 C 444.515625 569.5 444.511719 569.480469 445.382812 568.613281 C 452.054688 561.941406 449.996094 537.164062 440.773438 513.21875 C 436.144531 501.195312 434.976562 496.558594 433.621094 484.84375 C 429.898438 452.675781 426.167969 446.671875 407.621094 443.007812 C 397.679688 441.046875 394.148438 439.832031 392.238281 437.71875 C 389.523438 434.71875 399.707031 435.917969 406.644531 439.414062 C 416.851562 444.566406 423.097656 443.0625 426.226562 434.699219 C 428.8125 427.792969 427.949219 421.070312 422.679688 407.125 C 415.953125 389.324219 415.007812 383.507812 414.21875 355.035156 C 413.054688 313.320312 407.703125 293.589844 391.824219 272.464844 C 376.449219 252.011719 361.078125 243.207031 323.753906 233.476562 C 288.207031 224.207031 275.550781 218.195312 267.382812 206.699219 C 258.960938 194.847656 258.082031 182.605469 263.195312 148.105469 L 264.160156 141.589844 L 265.859375 142.410156 C 271.074219 144.929688 274.625 141.203125 275.621094 132.164062 C 275.898438 129.628906 276.621094 125.921875 277.222656 123.925781 C 281.640625 109.257812 280.15625 99.808594 272.933594 96.625 C 271.015625 95.78125 271.191406 96.164062 269.445312 89.117188 C 268.125 83.777344 267.351562 79.101562 265.8125 67.070312 C 260.90625 28.6875 256.070312 16.996094 241.417969 8.125 C 233.804688 3.511719 217.261719 0.648438 207.890625 2.308594 M 225.40625 13.398438 C 244.578125 16.742188 253.019531 28.871094 257.328125 59.273438 C 258.09375 64.664062 259.214844 72.582031 259.820312 76.867188 C 261.089844 85.824219 262.566406 91.777344 264.480469 95.632812 C 265.214844 97.121094 265.71875 98.496094 265.597656 98.695312 C 265.144531 99.425781 265.914062 100.382812 267.152344 100.628906 C 272.855469 101.769531 274.695312 109.066406 271.621094 118.382812 C 270.644531 121.347656 269.5 126.050781 269.085938 128.84375 C 268.585938 132.1875 268.195312 133.683594 267.945312 133.230469 C 267.730469 132.84375 267.773438 131.792969 268.050781 130.765625 C 269.5 125.382812 268.574219 122.984375 264.84375 122.472656 C 260.636719 121.894531 256.546875 125.355469 247.398438 137.226562 C 236.644531 151.183594 233.671875 153.125 210.011719 161.632812 C 200.160156 165.175781 190.636719 164.148438 173.289062 157.675781 C 155.203125 150.925781 151.222656 145.207031 152.867188 128.300781 C 154.140625 115.167969 153.65625 109.332031 149.398438 86.445312 C 147.855469 78.132812 147.980469 65.445312 149.671875 59.289062 C 157.929688 29.277344 193.351562 7.8125 225.40625 13.398438 M 260.207031 135.183594 C 257.832031 139.574219 254.84375 143.429688 250.949219 147.128906 C 247.039062 150.84375 244.605469 152.433594 247.136719 149.621094 C 248.015625 148.652344 250.554688 145.445312 252.777344 142.496094 C 260.996094 131.621094 263.421875 129.234375 260.207031 135.183594 M 257.394531 157.53125 C 255.53125 169.703125 255.164062 172.5625 254.652344 178.769531 C 252.695312 202.789062 265.011719 220.75 290.554688 231.121094 C 297.574219 233.976562 303.59375 235.742188 321.847656 240.316406 C 355.738281 248.800781 369.628906 256.566406 384.792969 275.511719 C 401.894531 296.882812 407.078125 315.261719 407.753906 356.894531 C 408.199219 384.410156 409.292969 390.972656 416.574219 409.8125 C 421.117188 421.558594 421.816406 427.378906 419.277344 432.386719 C 417.457031 435.988281 416.464844 436.03125 409.636719 432.78125 C 398.433594 427.445312 387.835938 427.097656 384.707031 431.960938 C 380.101562 439.105469 386.675781 446.253906 399.773438 448.355469 C 402.695312 448.824219 406.417969 449.425781 408.046875 449.6875 C 418.8125 451.4375 422.980469 458.207031 425.355469 477.789062 C 427.921875 498.984375 428.816406 503.210938 432.789062 512.851562 C 437.324219 523.875 438.199219 526.195312 439.316406 530.148438 C 445.371094 551.535156 444.492188 567.742188 437.457031 564.351562 C 426.414062 559.027344 416.785156 562.417969 407.195312 575.003906 C 405.179688 577.648438 403.457031 579.539062 403.363281 579.203125 C 401.050781 570.972656 398.875 565.601562 393.828125 555.660156 C 360.203125 489.480469 359.960938 488.941406 360.941406 483.699219 L 361.238281 482.113281 L 363.777344 482.414062 C 365.949219 482.671875 367.304688 483.328125 373.222656 486.976562 C 386.945312 495.429688 391.1875 496.300781 395.679688 491.585938 C 399.597656 487.464844 395.925781 479.945312 388.25 476.367188 C 384.152344 474.460938 379.972656 473.953125 373.445312 474.566406 C 368.84375 475 367.777344 474.972656 366.125 474.390625 C 365.0625 474.015625 363.335938 473.710938 362.285156 473.710938 C 358.085938 473.710938 356.222656 469.5 349.371094 444.539062 C 340.882812 413.613281 336.421875 406.066406 329.230469 410.449219 C 323.246094 414.09375 322.855469 421.398438 326.878906 454.335938 C 327.597656 460.214844 328.894531 471.539062 329.769531 479.5 C 333.050781 509.488281 334.496094 518.730469 342.011719 557.664062 C 348.789062 592.800781 349.628906 597.421875 352.066406 613.117188 C 353.421875 621.8125 355.714844 635.945312 357.160156 644.515625 C 362.074219 673.585938 362.753906 682.339844 362.398438 711.980469 C 361.964844 748.5625 361.554688 749.332031 339.9375 753.859375 C 306.445312 760.878906 283.292969 778.710938 296.460938 787.351562 C 308.804688 795.457031 334.890625 786.265625 358.515625 765.488281 C 364.796875 759.964844 364.574219 760.054688 365.160156 762.777344 C 366.804688 770.445312 366.90625 785.566406 365.390625 796.617188 C 363.132812 813.070312 364.496094 822.222656 371.761719 839.375 C 378.617188 855.5625 380.632812 865.617188 378.878906 874.839844 C 377.363281 882.820312 374.925781 884.757812 371.152344 880.988281 C 363.792969 873.632812 339.21875 867.175781 311.683594 865.363281 C 301.320312 864.683594 296.230469 870.003906 302.34375 875.140625 C 308.707031 880.496094 319.054688 883.515625 338.460938 885.6875 C 351.507812 887.148438 369.699219 890.488281 370.84375 891.636719 C 371.28125 892.074219 371.90625 904.171875 372.121094 916.425781 C 372.464844 935.992188 373.15625 952.105469 374.082031 962.304688 C 375.710938 980.179688 375.300781 989.949219 372.113281 1009.070312 C 368.054688 1033.40625 365.574219 1057.175781 364.097656 1085.898438 C 362.789062 1111.296875 361.847656 1115.132812 355.007812 1122.863281 C 351.070312 1127.316406 350.097656 1129.09375 347.558594 1136.515625 C 345.105469 1143.679688 343.339844 1147.199219 342.832031 1145.960938 C 332.929688 1121.890625 324.871094 1109.921875 315.285156 1105.058594 C 304.019531 1099.34375 290.777344 1101.503906 290.777344 1109.058594 C 290.777344 1112.652344 292.617188 1114.324219 300.921875 1118.265625 C 313.519531 1124.246094 318.371094 1128.671875 327.449219 1142.460938 C 331.941406 1149.285156 335.46875 1153.519531 337.105469 1154.035156 C 338.3125 1154.417969 342.480469 1168.191406 344.460938 1178.324219 C 346.515625 1188.859375 346.417969 1195.640625 344.132812 1200.511719 C 336.703125 1216.351562 305.976562 1214.355469 297.539062 1197.480469 C 295.503906 1193.410156 295.398438 1191.210938 296.804688 1182.261719 C 299.414062 1165.660156 296.78125 1155.5 283.027344 1129.117188 C 281.898438 1126.953125 281.613281 1125.816406 281.484375 1122.972656 C 281.304688 1119.121094 281.410156 1118.292969 284.558594 1098.144531 C 285.765625 1090.429688 288.257812 1072.792969 290.101562 1058.953125 C 293.914062 1030.324219 294.953125 1025.460938 304.152344 993.035156 C 319.566406 938.738281 319.574219 924.5 304.21875 910.273438 C 296.898438 903.492188 294.558594 898.429688 291.011719 881.6875 C 286.648438 861.074219 283.804688 853.6875 275.34375 840.933594 C 265.984375 826.824219 264.535156 823.542969 258.015625 801.730469 C 251.375 779.503906 248.761719 774.050781 244.074219 772.644531 C 239.816406 771.371094 237.640625 773.921875 235.632812 782.550781 C 234.996094 785.28125 234.890625 789.277344 234.855469 812.203125 C 234.8125 838.453125 234.660156 842.34375 232.84375 864.539062 C 231.222656 884.355469 230.914062 894.855469 230.816406 933.351562 C 230.726562 969.136719 230.640625 973.195312 229.761719 983.015625 C 228.816406 993.554688 228.433594 1012.753906 229.046875 1019.128906 C 229.183594 1020.578125 229.792969 1028.578125 230.402344 1036.90625 C 232.597656 1067.015625 232.917969 1070.910156 233.953125 1080.773438 C 234.535156 1086.285156 235.226562 1094.003906 235.488281 1097.925781 C 236.683594 1115.753906 237.027344 1119.335938 238.242188 1126.652344 C 239.882812 1136.476562 239.738281 1139.359375 237.582031 1139.816406 C 221.894531 1143.15625 199.628906 1150.632812 194.503906 1154.277344 L 193.167969 1155.226562 L 191.007812 1153.417969 C 183.386719 1147.042969 182.335938 1143.300781 184.230469 1129.363281 C 186.042969 1116.015625 185.601562 1109.160156 181.640625 1089.460938 C 178.019531 1071.429688 176.964844 1062.023438 176.488281 1043.585938 C 176.234375 1033.722656 176.136719 1031.335938 175.5625 1021.09375 C 174.402344 1000.46875 170.8125 984.269531 163.914062 968.558594 C 156.820312 952.390625 156.808594 948.839844 163.835938 941.636719 L 166.828125 938.566406 L 169.199219 938.855469 C 187.121094 941.0625 196.757812 940.214844 205.410156 935.671875 C 219.8125 928.105469 220.578125 914.660156 206.609375 914.648438 L 203.324219 914.644531 L 206.164062 911.632812 C 216.898438 900.234375 213.726562 888.03125 200.980469 891.675781 C 198.585938 892.363281 169.796875 906.878906 162.359375 911.15625 C 158.90625 913.140625 158.894531 913.140625 157.425781 911.984375 C 153.097656 908.582031 152.140625 896.796875 154.03125 870.328125 C 155.160156 854.554688 155.386719 827.335938 154.480469 816.4375 C 151.617188 781.972656 147.519531 765.875 130.117188 720.675781 C 116.445312 685.160156 112.71875 664.574219 118.574219 656.902344 C 123.867188 649.964844 142.464844 653.132812 170.679688 665.785156 C 203.46875 680.484375 209.457031 681.667969 243.507812 680.175781 C 264.875 679.238281 276.605469 679.484375 294.789062 681.242188 C 316.972656 683.390625 341.660156 682.183594 348.679688 678.605469 C 353.316406 676.238281 353.601562 670.539062 349.222656 667.683594 C 343.988281 664.277344 334.324219 664.128906 304.816406 667.015625 C 240.515625 673.300781 222.667969 671.9375 188.058594 658.09375 C 167.382812 649.824219 159.785156 647.933594 141.488281 646.511719 C 114.734375 644.4375 113.136719 643.328125 116.058594 628.777344 C 118.457031 616.851562 118.535156 612.828125 116.550781 602.964844 C 114.410156 592.296875 114.71875 589.15625 118.277344 585.492188 C 121.390625 582.285156 120.957031 580.15625 116.132812 575.019531 C 109.429688 567.875 107.824219 552.023438 109.578125 510.339844 C 111.75 458.722656 109.53125 438.796875 101.367188 436.683594 C 96.621094 435.460938 95.546875 436.804688 84.246094 458.121094 C 74.890625 475.769531 74.761719 475.851562 65.386719 469.984375 C 46.445312 458.140625 33.199219 457.367188 33.199219 468.109375 C 33.199219 476.230469 43.683594 482.058594 59.714844 482.851562 C 74.167969 483.566406 74.496094 484.941406 66.621094 511.808594 C 61.402344 529.613281 59.113281 536.355469 53.878906 549.296875 C 38.742188 586.761719 36.640625 593.976562 36.703125 608.207031 C 36.785156 627.316406 40.886719 635.164062 58.617188 650.117188 C 68.8125 658.714844 73.347656 667.148438 74.039062 678.8125 L 74.273438 682.820312 L 71.945312 678.8125 C 62.855469 663.1875 50.320312 658.101562 45.46875 668.070312 C 42.097656 674.988281 43.988281 683.597656 52.125 698.410156 C 58.148438 709.371094 61.457031 718.9375 61.183594 724.582031 C 61.015625 728.050781 60.476562 728.171875 58.1875 725.265625 C 55.617188 722.007812 50.359375 716.722656 47.683594 714.707031 C 46.457031 713.785156 43.550781 711.613281 41.21875 709.882812 C 31.375 702.550781 22.292969 691.144531 16.316406 678.589844 C 7.8125 660.71875 7.460938 647.675781 14.328125 604.878906 C 16.222656 593.078125 16.144531 578.757812 14.101562 563.457031 C 11.699219 545.449219 12.34375 536.515625 16.074219 536.152344 C 17.628906 536.003906 19.59375 537.226562 25.894531 542.296875 C 36.628906 550.925781 44.679688 551.988281 46.558594 545.019531 C 48.347656 538.371094 41.078125 531.363281 28.207031 527.339844 C 15.644531 523.410156 15.042969 522.144531 18.597656 507.113281 C 22.332031 491.304688 22.929688 485.394531 23.386719 459.679688 C 23.917969 429.707031 24.257812 427.917969 34.089844 403.335938 C 43.742188 379.214844 45.910156 370.046875 47.6875 345.894531 C 49.285156 324.191406 54.011719 311.59375 68.078125 291.546875 C 89.527344 260.980469 113.257812 243.351562 142.378906 236.34375 C 163.996094 231.140625 167.230469 229.179688 172.90625 217.832031 L 175.578125 212.488281 L 179.371094 209.972656 L 183.15625 207.457031 L 190.507812 207.695312 C 208.089844 208.265625 241.066406 201.628906 244.167969 196.894531 C 248.300781 190.597656 240.757812 187.339844 226.148438 189.121094 C 211.679688 190.882812 199.125 193.484375 188.304688 196.964844 C 179.050781 199.933594 178.261719 199.3125 177.578125 188.523438 C 177 179.414062 176.054688 174.21875 174.046875 169.128906 L 173.210938 167.007812 L 177.738281 168.035156 C 209.699219 175.273438 236.449219 169.796875 254.679688 152.289062 C 256.761719 150.289062 258.523438 148.703125 258.589844 148.773438 C 258.660156 148.839844 258.121094 152.78125 257.394531 157.53125 M 234.628906 195.175781 C 230.746094 196.410156 209.054688 199.773438 208.507812 199.222656 C 208.390625 199.109375 213.070312 198.101562 218.898438 196.984375 C 232.230469 194.425781 231.289062 194.574219 234.183594 194.554688 L 236.632812 194.539062 L 234.628906 195.175781 M 672.640625 220.976562 C 649.011719 225.253906 622.75 252.75 610.570312 285.980469 C 609.402344 289.160156 608.304688 291.914062 608.136719 292.089844 C 607.964844 292.269531 605.886719 289.746094 603.515625 286.488281 C 565.753906 234.636719 513.316406 250.855469 511.492188 314.953125 C 509.871094 371.824219 547.8125 419.503906 610.523438 439.40625 C 635.757812 447.414062 668.066406 451.847656 677.746094 448.628906 C 689.164062 444.835938 698.507812 429.832031 706.785156 402.015625 C 707.691406 398.957031 709.304688 394.339844 710.371094 391.746094 C 725.367188 355.152344 730.847656 319.035156 726.628906 284.644531 C 720.941406 238.273438 701.800781 215.699219 672.640625 220.976562 M 688 226.503906 C 715.585938 234.386719 728.746094 286.925781 717.34375 343.65625 L 716.136719 349.671875 L 715.859375 337.867188 C 714.492188 279.976562 691.027344 245.617188 658.652344 254.085938 C 638.980469 259.226562 622.476562 280.058594 613.320312 311.308594 C 612.269531 314.886719 611.296875 317.816406 611.15625 317.820312 C 611.019531 317.824219 609.71875 316.070312 608.265625 313.929688 C 574.722656 264.398438 528.257812 261.09375 523.757812 307.914062 C 520.207031 344.839844 547.835938 392.976562 587.601562 419.160156 C 595.460938 424.335938 595.511719 424.433594 588.574219 420.976562 C 551.484375 402.484375 527.625 372.753906 520.757812 336.460938 C 510.816406 283.925781 542.039062 246.578125 576.515625 269.761719 C 585.191406 275.597656 591.519531 282.289062 600.375 294.996094 C 607.363281 305.027344 611.664062 305.015625 615.207031 294.960938 C 631.589844 248.535156 662.707031 219.269531 688 226.503906 M 673.132812 259.691406 C 703.734375 267.824219 718.222656 332.09375 702.503906 389.976562 C 701.257812 394.5625 692.363281 414.496094 692.964844 411.355469 C 693.195312 410.160156 694.152344 398.882812 695.0625 386.636719 C 696.078125 372.988281 695.808594 339.273438 694.605469 329.472656 C 690.742188 298.03125 681.820312 282.960938 667.117188 283.050781 C 645.152344 283.179688 628.417969 313.042969 624.535156 359.023438 C 624.25 362.449219 623.960938 365.3125 623.898438 365.382812 C 623.835938 365.453125 622.101562 363.070312 620.046875 360.089844 C 586.449219 311.289062 555.203125 288.71875 534.917969 298.589844 L 532.398438 299.816406 L 533.308594 297.375 C 543.992188 268.84375 578.128906 280.800781 603.984375 322.121094 C 608.019531 328.570312 608.234375 328.8125 610.574219 329.617188 C 614.933594 331.113281 616.371094 329.246094 619.199219 318.402344 C 629.621094 278.410156 651.976562 254.074219 673.132812 259.691406 M 671.816406 290.933594 C 684.363281 297.757812 690.339844 324.855469 688.75 367.707031 C 688.15625 383.6875 686.230469 410.484375 685.480469 413.25 C 685.429688 413.433594 685.371094 408.722656 685.347656 402.78125 C 685.222656 370.519531 676.285156 354.328125 663.394531 362.992188 C 658.597656 366.214844 654.050781 374.066406 649.5625 386.859375 C 644.535156 401.195312 646.1875 400.804688 632.800781 390.835938 C 615.582031 378.015625 604.398438 373.167969 594.925781 374.417969 C 585.410156 375.671875 581.730469 380.320312 583.9375 388.28125 L 584.761719 391.25 L 581.375 388.980469 C 549.484375 367.621094 531.003906 341 530.976562 316.394531 C 530.96875 308.058594 537.910156 301.589844 545.96875 302.417969 C 564.753906 304.335938 586.675781 324.328125 613.683594 364.160156 C 622.332031 376.914062 624.097656 378.542969 627.6875 377.054688 C 630.855469 375.746094 631.457031 373.921875 632.121094 363.699219 C 634.234375 331.070312 640.878906 310.117188 653.285156 296.972656 C 660.175781 289.671875 666.007812 287.773438 671.816406 290.933594 M 672.09375 367.789062 C 677.285156 372.78125 680.023438 396.351562 677.800781 416.921875 C 677.691406 417.902344 677.292969 421.902344 676.90625 425.820312 C 676.523438 429.730469 676.164062 432.96875 676.117188 433.011719 C 675.863281 433.246094 666.226562 430.464844 665.394531 429.917969 C 664.054688 429.042969 655.832031 425.488281 651.742188 424.019531 C 630.480469 416.382812 599.371094 401.242188 594.070312 395.953125 C 580.425781 382.328125 590.6875 373.605469 609.746094 382.625 C 615.042969 385.132812 620.882812 388.96875 628.792969 395.132812 C 637.8125 402.160156 638.144531 402.390625 640.847656 403.628906 C 643.113281 404.667969 643.484375 404.714844 645.515625 404.226562 C 649.824219 403.195312 650.496094 402.164062 654.09375 391.089844 C 660.625 370.980469 666.921875 362.816406 672.09375 367.789062 M 570.515625 391.207031 C 591.261719 407.003906 621.308594 422.007812 653.664062 432.722656 C 658.277344 434.25 661.984375 435.5625 661.90625 435.640625 C 661.539062 436.007812 648.691406 434.886719 643.945312 434.074219 C 613.40625 428.855469 580.367188 409.261719 560.558594 384.632812 C 556.636719 379.757812 556.699219 379.652344 561.164062 383.59375 C 563.386719 385.554688 567.597656 388.980469 570.515625 391.207031 M 792.277344 403.332031 C 779.96875 406.558594 768.625 418.925781 763.671875 434.535156 C 758.835938 449.777344 759.332031 462.03125 766.09375 494.421875 C 770.453125 515.285156 784.109375 540.429688 793.675781 545.199219 C 794.65625 545.6875 796.492188 546.84375 797.757812 547.777344 C 800.636719 549.898438 802.585938 550.253906 805.378906 549.171875 C 806.542969 548.71875 807.859375 548.410156 808.308594 548.480469 C 814.789062 549.480469 837.367188 539.753906 853.707031 528.914062 C 887.597656 506.4375 903.574219 473.722656 888.515625 457.632812 C 877.050781 445.382812 858.238281 445.699219 836.75 458.496094 C 834.21875 460.003906 832.089844 461.242188 832.027344 461.242188 C 831.964844 461.242188 831.769531 458.382812 831.601562 454.894531 C 829.789062 417.964844 814.242188 397.574219 792.277344 403.332031 M 808.132812 410.484375 C 818.6875 415.34375 824.464844 429.675781 825.703125 454.074219 L 826.257812 464.949219 L 827.980469 466.433594 C 828.925781 467.25 830.015625 467.921875 830.40625 467.925781 C 830.792969 467.929688 829.808594 468.753906 828.21875 469.761719 C 826.628906 470.769531 824.1875 472.472656 822.792969 473.542969 C 820.351562 475.421875 819.429688 475.925781 819.9375 475.097656 C 820.304688 474.507812 820.351562 452.917969 819.992188 450.328125 C 814.960938 413.8125 789.5 404.675781 772.480469 433.273438 C 769.949219 437.527344 769.867188 437.511719 771.441406 433.09375 C 778.039062 414.570312 794.707031 404.300781 808.132812 410.484375 M 334.207031 420.820312 C 336.257812 425.292969 338.175781 431.4375 342.90625 448.765625 C 347.808594 466.71875 351.347656 475.820312 354.074219 477.503906 C 354.277344 477.632812 354.058594 478.613281 353.582031 479.691406 C 350.789062 486.003906 352.484375 492.972656 360.492188 508.007812 C 362.777344 512.292969 368.757812 523.917969 373.78125 533.835938 C 378.808594 543.757812 384.617188 555.183594 386.691406 559.226562 C 391.054688 567.738281 392.765625 571.984375 394.539062 578.699219 C 396.335938 585.503906 398.386719 588.980469 400.667969 589.085938 C 402.984375 589.1875 411.464844 605.257812 415.597656 617.375 C 422.351562 637.171875 421.722656 645.175781 412.632812 654.925781 C 406.144531 661.890625 403.917969 668.257812 405.726562 674.707031 C 406.210938 676.449219 406.167969 676.835938 405.289062 678.519531 C 404.300781 680.414062 404.183594 684.671875 405.0625 686.714844 C 405.34375 687.363281 404.972656 687.292969 402.789062 686.28125 C 385.683594 678.347656 377.796875 702.972656 392.519531 718.34375 C 395.980469 721.960938 399.675781 724.339844 408.425781 728.597656 C 418.890625 733.6875 419.363281 734.191406 430.503906 752.300781 C 451.757812 786.835938 461.234375 795.347656 487.535156 803.515625 C 502.296875 808.101562 504.851562 810 506.277344 817.429688 C 506.632812 819.285156 507.9375 823.824219 509.179688 827.507812 C 511.796875 835.28125 511.964844 837.367188 510.667969 845.609375 C 509.714844 851.679688 509.605469 861.023438 510.417969 866.765625 C 511.648438 875.425781 511.109375 880.296875 507.816406 890.371094 C 503.964844 902.171875 502.613281 908.136719 500.417969 923.105469 C 498.355469 937.160156 497.453125 941.824219 494.804688 952.058594 C 489.339844 973.179688 493.484375 977.601562 517.324219 976.101562 C 527.585938 975.453125 526.75 975.160156 525.378906 978.945312 C 523.699219 983.566406 523.195312 989.65625 523.847656 997.4375 C 525.683594 1019.339844 525.425781 1021.742188 519.3125 1039.65625 C 510.707031 1064.875 511.179688 1078.558594 520.753906 1081.75 C 521.125 1081.875 521.011719 1082.460938 520.371094 1083.714844 C 516.078125 1092.121094 519.167969 1105.757812 531.304688 1131.996094 C 538.480469 1147.507812 539.058594 1149.351562 540.996094 1162.730469 C 541.617188 1167.015625 542.335938 1171.699219 542.59375 1173.128906 L 543.066406 1175.742188 L 540.574219 1178.207031 C 536.929688 1181.824219 534.113281 1188.242188 533.132812 1195.171875 L 532.648438 1198.597656 L 523.011719 1200.484375 C 507.390625 1203.542969 499.816406 1203.855469 489.753906 1201.863281 C 484.789062 1200.886719 483.347656 1200.484375 469.03125 1196.121094 C 448.0625 1189.722656 432.636719 1186.839844 411.769531 1185.417969 C 394.742188 1184.257812 388.226562 1185.683594 371.4375 1194.253906 C 364.417969 1197.832031 353.144531 1202.367188 351.257812 1202.367188 C 351.167969 1202.367188 351.496094 1200.914062 351.984375 1199.140625 C 354.40625 1190.3125 352.019531 1172.363281 346.238281 1155.992188 C 345.675781 1154.398438 345.699219 1154.34375 347.445312 1152.648438 C 349.773438 1150.390625 352.273438 1145.144531 354.304688 1138.230469 C 356.261719 1131.574219 356.9375 1130.167969 360.378906 1125.589844 C 367.136719 1116.597656 368.804688 1109.796875 370.550781 1084.113281 C 372.386719 1057.058594 375.214844 1028.808594 378.308594 1006.617188 C 381.078125 986.746094 381.40625 978.480469 380.140625 960.519531 C 379.390625 949.921875 378.710938 936.242188 378.339844 924.222656 C 377.902344 910.339844 377.246094 895.847656 376.953125 893.824219 C 376.738281 892.292969 376.816406 891.929688 377.378906 891.929688 C 380.050781 891.929688 384.097656 886.988281 385.714844 881.746094 C 388.878906 871.511719 387.476562 858.820312 381.472656 843.382812 C 374.109375 824.449219 373.882812 823.476562 373.902344 810.867188 C 373.917969 803.535156 374.15625 799.46875 374.9375 793.5 C 377.757812 771.917969 374.222656 751.738281 367.605469 751.625 C 366.378906 751.605469 366 750.851562 366.675781 749.796875 C 373.222656 739.652344 372.460938 685.601562 365.164062 641.84375 C 360.582031 614.378906 356.390625 592.230469 347.886719 550.539062 C 342.167969 522.503906 339.730469 507.507812 336.441406 480.167969 C 332.433594 446.792969 331.820312 441.484375 331.308594 435.628906 C 330.578125 427.230469 331.222656 417.589844 332.515625 417.589844 C 332.632812 417.589844 333.390625 419.042969 334.207031 420.820312 M 800.144531 424.992188 C 809.058594 428.558594 814.769531 449.613281 812.390625 470.144531 C 810.796875 483.898438 811.015625 485.996094 814.1875 487.4375 C 817.117188 488.777344 819.160156 487.988281 825.097656 483.238281 C 845.214844 467.128906 863.925781 461.742188 868.308594 470.789062 C 873.957031 482.449219 860.359375 499.609375 820.863281 530.671875 C 820.371094 531.058594 821.785156 529.472656 823.996094 527.148438 C 841.902344 508.371094 846.859375 497.144531 839.730469 491.511719 C 835.417969 488.105469 830.726562 488.121094 819.019531 491.574219 C 807.085938 495.097656 807.558594 495.386719 805.003906 483.101562 C 800.972656 463.738281 794.519531 453.496094 786.351562 453.496094 C 775.238281 453.496094 772.15625 474.390625 779.398438 500.636719 C 780.898438 506.082031 780.582031 505.859375 777.945312 499.617188 C 773.628906 489.40625 772.464844 483.234375 772.429688 470.371094 C 772.351562 441.644531 785.980469 419.332031 800.144531 424.992188 M 673.578125 442.085938 C 673.210938 442.324219 672.308594 442.496094 671.574219 442.46875 C 670.253906 442.417969 670.253906 442.410156 671.796875 442.085938 C 674.074219 441.609375 674.320312 441.609375 673.578125 442.085938 M 876.914062 456.140625 C 895.707031 462.539062 890.539062 491.054688 866.761719 512.136719 C 854.984375 522.582031 837.636719 533.089844 822.976562 538.65625 C 819.933594 539.808594 819.914062 539.832031 824.984375 536.039062 C 856.933594 512.136719 874.5625 491.710938 876.125 476.78125 C 877.5625 463.050781 864.359375 455.917969 846.871094 460.984375 C 842.015625 462.386719 841.917969 462.09375 846.527344 459.941406 C 857.949219 454.59375 868.503906 453.273438 876.914062 456.140625 M 790.792969 462.464844 C 794.136719 466.253906 796.507812 472.074219 798.546875 481.503906 C 801.332031 494.355469 801.792969 495.542969 804.9375 497.800781 C 808.109375 500.082031 811.449219 499.9375 820.863281 497.117188 C 836.375 492.457031 840.242188 494.628906 834.964844 505.027344 C 831.878906 511.117188 817.714844 527.488281 819.695312 522.679688 C 823.039062 514.570312 818.871094 510.636719 810.0625 513.589844 C 805.832031 515.011719 805.886719 515.039062 804.394531 510.832031 C 801.433594 502.480469 797.597656 497.964844 794.1875 498.820312 C 792.691406 499.195312 790.441406 502.25 790.089844 504.382812 C 789.566406 507.535156 789.320312 507.28125 787.839844 502.039062 C 780.144531 474.824219 781.824219 452.304688 790.792969 462.464844 M 384.207031 482.390625 C 388.253906 483.589844 391.484375 486.628906 388.714844 486.628906 C 387.617188 486.628906 381.242188 483.683594 379.683594 482.457031 C 378.445312 481.484375 381.027344 481.445312 384.207031 482.390625 M 799.203125 511.953125 C 802.621094 519.757812 804.296875 520.691406 810.835938 518.472656 C 816.316406 516.609375 816.671875 516.941406 814.367188 521.8125 C 812.847656 525.019531 804.246094 538.289062 803.6875 538.289062 C 802.414062 538.289062 796.128906 513.21875 796.128906 508.152344 C 796.128906 505.375 796.550781 505.894531 799.203125 511.953125 M 434.425781 571.167969 C 442.789062 575.121094 446.742188 584.816406 448.992188 606.882812 C 450.242188 619.164062 451.542969 625.191406 455.671875 637.835938 C 459.242188 648.773438 460.574219 653.53125 461.445312 658.433594 C 464.625 676.324219 460.300781 703.722656 453.296875 710.039062 L 451.875 711.324219 L 453.046875 709.988281 C 458.554688 703.730469 456.417969 690.042969 449.1875 685.230469 C 448.179688 684.558594 447.070312 683.167969 446.21875 681.507812 C 441.460938 672.207031 431.78125 668.808594 422.402344 673.144531 C 418.042969 675.160156 417.347656 675.292969 415.167969 674.53125 C 410.480469 672.898438 412.164062 666.457031 419.09375 659.523438 C 426.550781 652.0625 428.804688 646.441406 428.339844 636.5 C 427.613281 621.148438 419.597656 600.640625 409.382812 588.007812 L 407.992188 586.285156 L 409.25 584.667969 C 409.941406 583.78125 411.375 581.75 412.4375 580.160156 C 419.292969 569.867188 425.9375 567.152344 434.425781 571.167969 M 631.484375 623.257812 C 631.742188 623.4375 632.914062 624.78125 634.09375 626.242188 C 639.457031 632.890625 642.035156 633.164062 648.796875 627.808594 C 654.523438 623.269531 655.292969 624.5625 652.4375 633.898438 C 649.773438 642.59375 650.417969 646.617188 655.023438 650.0625 C 657.257812 651.734375 660.71875 653.199219 662.429688 653.199219 C 663.644531 653.199219 663.84375 653.796875 663.023438 654.96875 C 662.355469 655.921875 662.105469 655.96875 659.113281 655.695312 C 655.601562 655.378906 653.375 656.292969 652.417969 658.445312 C 651.78125 659.871094 651.578125 659.730469 650.015625 656.796875 C 646.46875 650.152344 641.476562 645.65625 636.617188 644.742188 C 634.347656 644.316406 632.644531 644.449219 627.566406 645.457031 C 626.539062 645.660156 626.339844 645.546875 626.339844 644.753906 C 626.339844 644.230469 625.890625 643.007812 625.339844 642.039062 C 624.167969 639.976562 624.417969 639.652344 627.519531 639.183594 C 632.398438 638.457031 633.464844 634.917969 630.683594 628.707031 C 628.566406 623.976562 628.9375 621.464844 631.484375 623.257812 M 616.984375 640.03125 L 616.984375 642.003906 L 613.402344 640.699219 C 611.4375 639.984375 609.433594 639.394531 608.949219 639.394531 C 606.476562 639.394531 608.523438 638.523438 611.300781 638.390625 C 613.078125 638.304688 615.085938 638.195312 615.757812 638.144531 C 616.921875 638.0625 616.984375 638.15625 616.984375 640.03125 M 608.675781 645.445312 C 610.179688 645.832031 613.851562 647.320312 616.828125 648.75 C 624.921875 652.640625 626.128906 652.859375 632.359375 651.585938 C 638.238281 650.378906 639.511719 651.367188 644.835938 661.296875 C 648.140625 667.453125 652.589844 671.304688 654.8125 669.933594 C 655.378906 669.585938 657.746094 672.507812 658.929688 675.015625 C 659.957031 677.199219 659.933594 685.722656 658.894531 686.761719 C 658.566406 687.089844 658.425781 687.054688 658.425781 686.660156 C 658.425781 686.34375 657.707031 684.652344 656.828125 682.898438 C 652.949219 675.136719 648.238281 671.277344 638.464844 667.828125 C 632.839844 665.847656 629.972656 664.285156 623.222656 659.539062 C 603.144531 645.40625 587.183594 647.585938 571.792969 666.5625 L 570.527344 668.121094 L 571.414062 666.625 C 580.128906 651.957031 596.914062 642.417969 608.675781 645.445312 M 605.503906 656.972656 C 609.828125 657.886719 615.210938 660.585938 620.324219 664.40625 C 628.496094 670.507812 630.597656 671.722656 637.675781 674.457031 C 645.476562 677.464844 646.902344 678.722656 650.21875 685.511719 C 652.617188 690.425781 652.777344 691.464844 650.507812 687.429688 C 648.421875 683.710938 647.609375 682.734375 644.835938 680.609375 C 640.390625 677.203125 639.765625 677.058594 629.015625 677.042969 L 619.433594 677.023438 L 615.421875 675.40625 C 613.214844 674.515625 608.90625 672.777344 605.84375 671.546875 C 592.066406 665.996094 580.980469 666.472656 572.640625 672.96875 L 570.859375 674.359375 L 572.421875 672.363281 C 581.996094 660.105469 593.976562 654.53125 605.503906 656.972656 M 595.933594 673 C 599.972656 673.847656 603.023438 674.992188 610.296875 678.375 C 619.566406 682.6875 619.609375 682.699219 629.238281 683 C 639.039062 683.3125 639.742188 683.546875 642.429688 687.394531 C 647.160156 694.15625 648.039062 702.84375 645.640625 719.121094 C 645.003906 723.40625 644.464844 728.492188 644.441406 730.425781 L 644.394531 733.933594 L 643.410156 730.792969 C 641.929688 726.070312 641.335938 720.539062 641.675781 714.664062 C 642.746094 696.28125 641.207031 690.710938 634.113281 687.242188 C 628.679688 684.585938 623.554688 686.195312 613.589844 693.671875 C 600.285156 703.65625 596.339844 703.191406 587.835938 690.652344 C 582.355469 682.566406 576.546875 679.269531 571.304688 681.265625 L 570.132812 681.707031 L 571.117188 680.320312 C 575.578125 674.058594 586.140625 670.941406 595.933594 673 M 335.339844 673.191406 C 341.765625 673.984375 324.421875 675.210938 312.835938 674.785156 C 304.320312 674.464844 299.960938 673.824219 305.257812 673.664062 C 306.730469 673.621094 309.9375 673.441406 312.390625 673.265625 C 318.195312 672.847656 332.207031 672.800781 335.339844 673.191406 M 420.523438 684.003906 C 423.890625 683.339844 427.171875 683.894531 434.765625 686.40625 C 441.117188 688.511719 441.085938 688.484375 440.519531 691.476562 C 439.722656 695.65625 438.273438 696.535156 430.898438 697.296875 C 428.21875 697.574219 425.402344 697.964844 424.640625 698.167969 C 423.367188 698.496094 423.1875 698.40625 422.578125 697.125 C 422.210938 696.347656 420.257812 693.816406 418.238281 691.496094 C 416.222656 689.175781 414.105469 686.359375 413.539062 685.242188 L 412.507812 683.207031 L 415.101562 683.882812 C 417.289062 684.453125 418.136719 684.472656 420.523438 684.003906 M 579.347656 687.515625 C 580.207031 688.347656 582.316406 691.066406 584.035156 693.550781 C 594.089844 708.101562 601.105469 709.167969 615.714844 698.359375 C 632.199219 686.167969 638.300781 689.78125 636.15625 710.476562 C 634.6875 724.6875 636.742188 736.542969 641.570312 741.6875 C 643.671875 743.933594 640.199219 744.40625 637.707031 742.21875 C 636.828125 741.453125 635.589844 739.898438 634.949219 738.765625 C 630.851562 731.519531 627.867188 728.1875 621.886719 724.164062 C 612.285156 717.707031 604.332031 715.816406 598.042969 718.5 C 593.367188 720.492188 592.671875 720.648438 591.148438 720.015625 C 589.0625 719.152344 586.9375 716.363281 585.101562 712.070312 C 580.832031 702.105469 578.789062 699.339844 572.886719 695.554688 C 566.707031 691.597656 565.78125 689.84375 568.777344 687.78125 C 572.644531 685.117188 576.761719 685.011719 579.347656 687.515625 M 399.511719 692.867188 C 404.441406 695.183594 416.429688 703.207031 416.113281 703.976562 C 410.9375 716.542969 437.609375 729.714844 453.09375 722.238281 C 454.109375 721.746094 454.976562 721.34375 455.019531 721.34375 C 455.152344 721.34375 459.074219 727.300781 459.585938 728.285156 C 459.851562 728.792969 460.804688 731.699219 461.703125 734.742188 C 466.761719 751.828125 475.484375 759.339844 497.074219 765.207031 C 521.777344 771.925781 531.476562 770.960938 559.804688 758.960938 L 567.464844 755.714844 L 570.273438 757.199219 C 574.277344 759.308594 576.605469 759.957031 584.671875 761.191406 C 592.839844 762.4375 597.03125 763.570312 605.960938 766.949219 C 620.902344 772.59375 630.488281 772.941406 640.085938 768.179688 L 642.734375 766.867188 L 644.675781 768.855469 C 647.257812 771.503906 651.078125 773.996094 658.824219 778.097656 C 676.328125 787.363281 679.378906 793.53125 682.035156 825.050781 C 683.71875 844.972656 685.183594 849.160156 695.113281 862.449219 C 705.824219 876.785156 708.269531 888.78125 705.429688 913.085938 C 702.410156 938.925781 691.167969 975.007812 682.226562 987.542969 C 676.550781 995.5 675.09375 993.105469 677.148438 979.226562 C 679.15625 965.6875 679.160156 956.164062 677.171875 942.566406 C 676.699219 939.335938 676.082031 934.1875 675.796875 931.125 C 675.074219 923.378906 673.054688 911.597656 671.15625 904.074219 C 668.886719 895.066406 669.425781 892.132812 676.769531 873.46875 C 684.636719 853.472656 684.582031 846.058594 676.566406 846.058594 C 667.496094 846.058594 658.652344 871.433594 661.097656 890.425781 C 661.410156 892.847656 661.714844 897.734375 661.78125 901.285156 C 661.902344 908.492188 662.589844 912.570312 665.851562 925.558594 C 670.417969 943.746094 671.164062 951.648438 670.070312 970.097656 C 669.128906 985.921875 668.152344 989.324219 663.597656 992.65625 C 661.203125 994.40625 660.167969 994.277344 654.59375 991.546875 C 646.058594 987.363281 646.148438 987.386719 614.753906 981 C 543.351562 966.472656 541.089844 966.136719 520.058594 967.140625 C 500.742188 968.0625 500.714844 968.042969 503.566406 954.507812 C 504.976562 947.824219 505.765625 942.914062 507.371094 930.902344 C 509.691406 913.496094 511.003906 907.09375 514.921875 894.078125 C 518.441406 882.382812 518.542969 881.542969 518.402344 865.710938 C 518.292969 853.703125 518.398438 850.808594 519.113281 846.128906 C 520.046875 840.039062 519.925781 834.628906 518.792969 831.511719 L 518.121094 829.660156 L 521.765625 831.808594 C 526.214844 834.429688 530.253906 837.980469 531.445312 840.308594 C 532.492188 842.363281 535.394531 842.886719 536.308594 841.1875 C 538.730469 836.664062 534.625 830.875 524.929688 825.132812 C 519.007812 821.628906 516.933594 819.574219 514.71875 815.023438 C 509.503906 804.296875 507.285156 802.65625 490.558594 797.128906 C 473.3125 791.425781 465.28125 786.183594 455.9375 774.519531 C 452.019531 769.617188 451.363281 768.667969 439.085938 750.066406 C 425.875 730.039062 423.683594 727.824219 410.875 721.550781 C 395.730469 714.125 389.730469 705.773438 392.601562 696.101562 C 393.9375 691.617188 395.394531 690.929688 399.511719 692.867188 M 449.511719 696.886719 C 451.632812 702.414062 449.140625 706.675781 442.332031 709.15625 C 441.207031 709.566406 438.433594 710.648438 436.164062 711.566406 L 432.039062 713.226562 L 428.371094 711.382812 C 421.414062 707.886719 421.792969 706.800781 430.28125 705.917969 C 440.097656 704.894531 444.421875 702.585938 446.800781 697.09375 C 448.039062 694.234375 448.480469 694.203125 449.511719 696.886719 M 655.316406 702.863281 C 656.640625 709.429688 655.820312 717.097656 652.832031 726.023438 C 651.65625 729.539062 651.683594 729.054688 653.167969 719.789062 C 653.925781 715.070312 654.171875 711.636719 654.183594 705.6875 C 654.1875 701.355469 654.222656 697.847656 654.257812 697.890625 C 654.296875 697.929688 654.769531 700.167969 655.316406 702.863281 M 571.429688 701.191406 C 573.304688 703.445312 575.5 707.5 576.421875 710.4375 C 580.804688 724.359375 589.570312 730.386719 599.113281 726.054688 C 606.925781 722.503906 619.027344 728.28125 625.824219 738.796875 C 630.898438 746.652344 633.054688 748.859375 637.09375 750.304688 C 638.679688 750.871094 638.699219 750.910156 638.265625 752.480469 C 637.84375 754.023438 638.027344 757.945312 638.613281 759.9375 C 638.964844 761.121094 635.710938 762.492188 630.128906 763.511719 C 623.746094 764.675781 619.117188 763.867188 605.394531 759.207031 C 596.355469 756.132812 592.902344 755.359375 581.609375 753.886719 C 579.433594 753.605469 576.675781 753.144531 575.480469 752.871094 L 573.308594 752.371094 L 573.308594 749.886719 C 573.304688 746.742188 572.71875 744.589844 570.863281 740.921875 C 566.738281 732.75 564.820312 716.523438 566.332031 702.527344 L 566.703125 699.078125 L 568.183594 699.078125 C 569.402344 699.078125 569.972656 699.449219 571.429688 701.191406 M 348.488281 762.589844 C 334.957031 774.003906 318.550781 781.140625 306.183594 781 C 300.820312 780.933594 301.019531 780.015625 307.265625 775.914062 C 317.203125 769.398438 330.277344 764.945312 349.601562 761.503906 C 349.726562 761.480469 349.222656 761.972656 348.488281 762.589844 M 674.964844 856.984375 C 673.78125 861.554688 668.3125 874.746094 668.257812 873.171875 C 668.160156 870.402344 672.035156 858.90625 674.253906 855.398438 C 675.796875 852.953125 675.929688 853.253906 674.964844 856.984375 M 330.121094 874.335938 C 335.898438 875.011719 344.09375 876.546875 345.777344 877.269531 C 346.910156 877.757812 345.722656 877.636719 334.003906 876.097656 C 329.222656 875.464844 324.210938 874.679688 322.863281 874.351562 L 320.414062 873.746094 L 322.417969 873.707031 C 323.523438 873.683594 326.992188 873.96875 330.121094 874.335938 M 204.769531 898.722656 C 204.753906 902.050781 196.953125 908.847656 190.128906 911.476562 C 185.71875 913.167969 172.664062 915.667969 171.949219 914.949219 C 171.882812 914.882812 176.480469 912.292969 182.171875 909.195312 C 200.835938 899.023438 204.773438 897.199219 204.769531 898.722656 M 208.089844 922.179688 C 208.496094 922.835938 204.808594 925.710938 201.429688 927.375 C 197.058594 929.527344 192.914062 930.289062 186.390625 930.136719 L 181.011719 930.011719 L 185.648438 928.042969 C 195.273438 923.960938 207.253906 920.832031 208.089844 922.179688 M 168.449219 924.222656 L 173.796875 924.222656 L 170.457031 925.945312 C 168.617188 926.890625 166.863281 927.871094 166.554688 928.113281 C 165.929688 928.617188 160.957031 927.527344 158.804688 926.414062 C 156.597656 925.273438 158.195312 923.464844 161.027344 923.902344 C 162.171875 924.078125 165.507812 924.222656 168.449219 924.222656 M 548.917969 976.800781 C 562.507812 978.453125 575.613281 981.019531 601.257812 987.042969 C 606.945312 988.378906 617.074219 990.578125 623.761719 991.929688 C 638.742188 994.960938 641.222656 995.644531 647.957031 998.605469 C 653.847656 1001.199219 657.597656 1002.160156 660.132812 1001.734375 C 662.136719 1001.394531 663.203125 1002.320312 664.703125 1005.710938 C 666.535156 1009.851562 665.40625 1016.726562 660.246094 1032.820312 C 658.765625 1037.429688 657.144531 1043.335938 656.640625 1045.9375 C 655.773438 1050.429688 655.542969 1052.753906 654.40625 1068.527344 C 653.835938 1076.457031 652.910156 1081.292969 650.195312 1090.542969 C 646.042969 1104.691406 645.136719 1114.449219 646.570312 1129.457031 C 647.878906 1143.128906 647.371094 1151.875 644.644531 1162.636719 C 642.597656 1170.710938 642.207031 1174.175781 642.308594 1183.390625 C 642.414062 1193.328125 642.382812 1193.445312 639.328125 1195.15625 C 637.519531 1196.167969 637.480469 1196.167969 637.480469 1195.292969 C 637.480469 1190.71875 627.289062 1187.46875 610.773438 1186.773438 C 604.785156 1186.523438 599.800781 1186.230469 599.695312 1186.128906 C 599.59375 1186.027344 600.445312 1184.796875 601.589844 1183.390625 C 605.003906 1179.199219 605.0625 1179.003906 605.429688 1170.078125 C 605.746094 1162.339844 606.25 1158.855469 608.113281 1151.46875 C 613.09375 1131.722656 612.3125 1124.136719 603.96875 1111.34375 C 597.15625 1100.890625 596.828125 1095.917969 600.78125 1062.960938 C 603.433594 1040.824219 602.339844 1031.679688 596.789062 1029.582031 C 589.847656 1026.964844 585.511719 1035.347656 583.566406 1055.167969 C 581.941406 1071.707031 581.394531 1073.789062 577.101562 1079.882812 C 568.964844 1091.421875 568.921875 1101.226562 576.933594 1117.789062 C 581.703125 1127.652344 581.730469 1127.929688 578.324219 1131.972656 C 575.503906 1135.320312 573.757812 1139.015625 573.757812 1141.628906 C 573.757812 1144.933594 575.519531 1146.972656 581.597656 1150.703125 C 584.085938 1152.230469 586.679688 1155.121094 586.679688 1156.363281 C 586.679688 1156.742188 585.640625 1156.191406 584.027344 1154.953125 C 577.644531 1150.042969 568.519531 1147.664062 563.230469 1149.53125 C 556.265625 1151.984375 550.902344 1155.875 549.628906 1159.386719 C 548.945312 1161.28125 548.355469 1161.40625 548.355469 1159.65625 C 548.355469 1152.9375 545 1141.832031 538.65625 1127.539062 C 529.4375 1106.78125 526.269531 1096.816406 526.609375 1089.65625 C 526.785156 1085.886719 527.488281 1085.761719 532.011719 1088.714844 C 541.246094 1094.742188 549.023438 1094.90625 551.96875 1089.144531 C 555.242188 1082.734375 547.800781 1076.910156 532.472656 1073.875 C 529.320312 1073.253906 526.292969 1072.644531 525.746094 1072.519531 C 520.792969 1071.414062 521.636719 1060.316406 528.535156 1035.792969 C 532.0625 1023.246094 532.789062 1015.402344 531.636719 1002.164062 C 530.644531 990.691406 530.992188 980.964844 532.578125 976.15625 C 532.816406 975.417969 539.851562 975.695312 548.917969 976.800781 M 596 1036.703125 C 596.96875 1041.210938 596.410156 1047.996094 593.375 1068.75 C 589.210938 1097.191406 589.78125 1104.085938 597.1875 1115.0625 C 604.539062 1125.964844 604.996094 1129.3125 601.171875 1144.242188 C 597.917969 1156.917969 597.644531 1158.828125 597.738281 1168.007812 L 597.820312 1176.179688 L 595.851562 1178.371094 C 593.84375 1180.601562 592.027344 1183.804688 592.027344 1185.113281 C 592.027344 1185.515625 591.476562 1186.101562 590.804688 1186.421875 C 587.199219 1188.128906 587.347656 1191.648438 591.316406 1198.765625 C 594.734375 1204.890625 594.585938 1204.347656 593.011719 1205 C 592.03125 1205.40625 591.132812 1205.367188 588.777344 1204.820312 C 587.128906 1204.441406 584.582031 1204.109375 583.113281 1204.089844 C 579.226562 1204.035156 579.355469 1202.671875 584.519531 1189.359375 C 587.867188 1180.71875 589.195312 1175.875 589.628906 1170.703125 C 589.910156 1167.367188 589.9375 1167.3125 591.394531 1166.785156 C 593.671875 1165.960938 594.878906 1163.636719 594.875 1160.082031 C 594.871094 1153.152344 593.097656 1150.644531 583.117188 1143.425781 C 580.085938 1141.238281 580.121094 1139.855469 583.296875 1136.53125 C 589.507812 1130.023438 589.515625 1126.539062 583.351562 1114.117188 C 576.039062 1099.382812 575.609375 1091.644531 581.652344 1083.777344 C 586.605469 1077.328125 588.261719 1071.070312 589.363281 1054.71875 C 590.140625 1043.160156 591.128906 1038.261719 593.1875 1035.824219 C 594.808594 1033.890625 595.4375 1034.085938 596 1036.703125 M 543.007812 1085.5625 C 544.113281 1086.050781 544.347656 1086.304688 543.820312 1086.4375 C 542.789062 1086.6875 539.820312 1085.839844 538.761719 1084.988281 C 537.621094 1084.070312 540.550781 1084.464844 543.007812 1085.5625 M 309.050781 1110.296875 C 313.574219 1111.949219 318.761719 1116.601562 322.914062 1122.71875 L 324.820312 1125.535156 L 321.949219 1122.917969 C 317.945312 1119.261719 312.9375 1116.078125 305.675781 1112.558594 C 298.136719 1108.90625 300.644531 1107.226562 309.050781 1110.296875 M 250.671875 1147.359375 C 266.054688 1151.761719 272.878906 1161.378906 268.808594 1172.921875 C 263.207031 1188.816406 246.972656 1199.347656 234.28125 1195.320312 C 227.796875 1193.265625 222.9375 1189.375 212.453125 1177.851562 L 205.347656 1170.039062 L 208.734375 1169.910156 C 222.679688 1169.394531 238.5625 1160.09375 243.941406 1149.289062 C 245.59375 1145.964844 245.695312 1145.941406 250.671875 1147.359375 M 235.964844 1148.304688 C 235.964844 1151.128906 226.078125 1159.011719 219.554688 1161.386719 C 212.222656 1164.054688 194.535156 1164.332031 196.132812 1161.757812 C 197.171875 1160.070312 209.382812 1155.441406 221.257812 1152.238281 C 225.300781 1151.140625 230.117188 1149.765625 231.953125 1149.175781 C 235.695312 1147.972656 235.964844 1147.917969 235.964844 1148.304688 M 572.515625 1155.53125 C 573.578125 1155.578125 574.492188 1155.949219 575.078125 1156.578125 L 575.988281 1157.554688 L 572.980469 1158.949219 C 571.324219 1159.714844 567.03125 1162.167969 563.441406 1164.394531 C 559.851562 1166.625 556.261719 1168.785156 555.464844 1169.195312 L 554.015625 1169.945312 L 554.324219 1166.929688 C 554.980469 1160.539062 562.441406 1154.957031 569.746094 1155.394531 C 570.359375 1155.433594 571.605469 1155.492188 572.515625 1155.53125 M 582.054688 1165.734375 C 582.746094 1169.421875 581.625 1173.097656 574.9375 1189.019531 C 571.914062 1196.214844 570.824219 1204.082031 572.332031 1207.78125 L 572.8125 1208.964844 L 570.113281 1207.867188 C 564.191406 1205.460938 552.8125 1203.265625 546.21875 1203.253906 C 539.316406 1203.242188 538.441406 1201.84375 540.148438 1193.550781 C 541.589844 1186.550781 544.195312 1183.664062 553.480469 1178.792969 C 556.914062 1176.992188 562.628906 1173.710938 566.179688 1171.507812 C 578.53125 1163.839844 581.492188 1162.765625 582.054688 1165.734375 M 608.960938 1200.363281 C 611.285156 1200.886719 615.320312 1201.183594 622.21875 1201.347656 C 630.066406 1201.535156 632.132812 1201.707031 632.132812 1202.175781 C 632.132812 1204.644531 634.011719 1205.976562 638.375 1206.597656 L 641.714844 1207.074219 L 641.714844 1216.84375 L 638.710938 1216.773438 C 636 1216.714844 635.089844 1216.414062 629.449219 1213.75 C 619.40625 1209.007812 610.273438 1206.375 603.839844 1206.375 L 601.507812 1206.375 L 601.273438 1203.78125 C 601.144531 1202.355469 600.617188 1200.359375 600.097656 1199.347656 C 599.578125 1198.335938 599.160156 1197.414062 599.160156 1197.3125 C 599.160156 1197.207031 600.613281 1197.679688 602.386719 1198.367188 C 604.164062 1199.054688 607.125 1199.953125 608.960938 1200.363281 M 550.851562 1210.398438 C 556.730469 1210.867188 563.355469 1211.921875 565.023438 1212.65625 C 566.539062 1213.320312 553.847656 1212.765625 550.582031 1212.023438 C 547.984375 1211.433594 544.148438 1210.070312 544.835938 1209.976562 C 544.984375 1209.957031 547.691406 1210.144531 550.851562 1210.398438 "/></g><mask id="a9d9ad58ef"><g filter="url(#7211a40cba)"><rect x="0" width="810" y="0" height="1439.999935" style="fill:#000000;fill-opacity:0.2;stroke:none;"/></g></mask></g></g></svg>