<svg width="2030" height="2056" viewBox="0 0 2030 2056" fill="none" xmlns="http://www.w3.org/2000/svg">
<path d="M1030.13 8.2677C1029.6 12.801 1029.47 16.801 1029.87 17.201C1030.8 18.1344 1091.6 22.801 1103.73 22.9344C1114 22.9344 1115.47 24.1344 1109.87 27.8677C1106.93 29.7344 1033.73 108.934 1019.07 126.001C1015.07 130.534 1014.67 131.868 1014.67 139.601V148.134L1020.4 148.801C1023.47 149.201 1047.07 151.068 1072.67 152.934C1098.4 154.801 1121.73 156.534 1124.8 156.934L1130.27 157.734L1131.07 148.801C1131.6 143.868 1131.73 139.601 1131.6 139.334C1131.33 139.068 1114.4 137.734 1093.87 136.268C1073.47 134.801 1052.27 133.201 1047.07 132.801L1037.33 132.001L1044.93 125.201C1049.07 121.334 1071.47 97.201 1094.67 71.601L1136.93 24.801L1137.6 16.5344C1138.27 10.001 1138 8.2677 1136.53 8.2677C1133.47 8.2677 1046.4 1.73436 1038.53 0.801041L1031.07 0.0010376L1030.13 8.2677Z" fill="white"/>
<path d="M921.067 5.46822C896.267 7.46822 875.734 9.46822 875.334 9.86823C874.8 10.2682 874.934 14.2682 875.467 18.8016L876.4 26.9349L882.534 26.2682C885.867 25.8682 900.667 24.6682 915.334 23.6016C930 22.5349 946.134 21.2016 951.2 20.6682L960.267 19.8682L952.534 30.4016C948.134 36.2682 929.867 63.2016 911.867 90.4016L879.067 139.602L879.6 148.535L880.267 157.602H884.4C886.8 157.602 911.734 155.735 940 153.602C968.267 151.468 992.667 149.602 994.134 149.602C996.934 149.602 996.934 149.068 996.4 140.535C996 135.602 995.467 131.468 995.334 131.202C994.934 130.668 910.8 137.468 905.334 138.535C901.467 139.202 900.934 139.068 902.134 137.468C913.6 122.668 924.667 106.402 951.467 65.6016L983.467 16.9349L982.934 9.20155L982.4 1.60155L974.267 1.73489C969.734 1.86823 945.734 3.60155 921.067 5.46822Z" fill="white"/>
<path d="M820.4 19.3356C813.6 20.4022 812 21.0689 812 23.0689C812 24.4022 817.733 57.3356 824.667 96.2689C831.6 135.202 837.333 167.202 837.333 167.469C837.333 168.136 856.267 164.536 856.933 163.736C858.133 162.669 831.467 17.6022 830.133 17.7356C829.333 17.8689 824.933 18.5356 820.4 19.3356Z" fill="white"/>
<path d="M1186.67 91.7361C1163.07 128.003 1143.87 158.003 1144.13 158.136C1145.07 158.936 1163.33 162.669 1164.13 162.269C1164.53 162.003 1170.13 153.336 1176.53 143.069C1183.07 132.669 1188.53 124.269 1188.93 124.269C1191.6 124.269 1243.6 136.803 1244.53 137.736C1245.2 138.269 1246.8 148.403 1248 160.136C1249.2 171.869 1250.53 181.869 1250.93 182.269C1252.27 183.736 1272 187.869 1272 186.803C1272 185.203 1253.47 38.8028 1252.67 34.2695C1252 30.4028 1251.47 30.1361 1241.6 27.8695C1236 26.6695 1230.93 25.6028 1230.53 25.6028C1230.13 25.6028 1210.4 55.3361 1186.67 91.7361ZM1241.2 91.6028C1242.67 106.936 1243.73 119.736 1243.6 119.869C1243.07 120.269 1200 110.003 1199.2 109.203C1198.8 108.803 1204.27 99.3361 1211.33 88.0028C1218.53 76.8028 1227.07 62.5361 1230.53 56.2695L1236.67 44.9361L1237.6 54.2695C1238.13 59.3361 1239.73 76.1361 1241.2 91.6028Z" fill="white"/>
<path d="M728 41.468C699.2 49.3347 673.867 56.8014 672.8 57.7347C671.734 58.668 710 197.068 712 199.335C712.534 200.001 717.2 199.335 722.134 197.868C729.734 195.735 731.2 194.935 730.934 192.801C730.667 191.468 727.067 178.401 723.067 163.868C718.8 148.801 716.134 136.935 716.8 136.401C717.467 135.868 727.067 132.801 738 129.735C749.067 126.668 761.6 122.535 766 120.401C779.867 113.868 787.867 103.601 790 89.3347C791.067 82.668 788 68.1347 784.134 60.5347C780.534 53.7347 771.2 44.9347 764 41.7347C756.267 38.268 740.134 38.1347 728 41.468ZM756 59.6014C764 63.7347 769.334 74.0014 769.334 85.468C769.334 93.7347 765.734 100.135 758.534 104.535C753.067 107.868 712.134 120.801 710.934 119.601C709.6 118.268 696.4 70.1347 697.2 69.468C698.267 68.268 735.467 57.868 740.667 57.2014C745.867 56.668 751.867 57.6014 756 59.6014Z" fill="white"/>
<path d="M1393.87 78.0027C1393.6 78.9361 1381.33 109.869 1366.67 146.936L1340.13 214.269L1346.67 217.203C1360.27 223.336 1355.87 230.269 1386.4 152.936C1401.33 115.069 1413.33 83.8694 1413.07 83.6027C1412.93 83.3361 1408.53 81.6027 1403.6 79.7361C1396.93 77.2027 1394.4 76.8027 1393.87 78.0027Z" fill="white"/>
<path d="M1442.67 106.934L1438.67 114.934L1460 125.601C1471.73 131.467 1481.33 136.801 1481.33 137.467C1481.33 138.134 1472 156.801 1460.53 179.067C1449.07 201.334 1435.87 227.201 1431.2 236.534L1422.67 253.601L1431.87 258.134L1441.07 262.801L1470.67 204.934C1486.93 173.067 1500.53 146.934 1500.8 146.934C1501.07 146.934 1511.07 151.734 1522.8 157.734C1534.67 163.601 1544.4 168.267 1544.67 168.001C1546.8 165.601 1552 153.067 1551.07 152.267C1549.87 151.201 1448.27 98.9341 1447.33 98.9341C1446.93 98.9341 1444.93 102.534 1442.67 106.934Z" fill="white"/>
<path d="M512.667 131.071C507.6 134.137 503.2 136.671 502.934 136.937C502.4 137.337 529.2 291.204 529.867 291.871C530.267 292.271 534.4 290.271 539.334 287.604C546.8 283.471 548.134 282.137 547.467 279.737C545.467 271.604 539.6 237.604 540.134 237.071C540.534 236.804 574.934 217.071 589.467 208.804C590 208.537 597.734 214.937 606.8 222.937C615.867 230.937 624 237.471 624.934 237.604C625.734 237.604 630.534 235.337 635.334 232.404L644.267 227.337L583.867 176.804C550.667 148.937 523.067 126.137 522.667 126.004C522.267 125.737 517.867 128.137 512.667 131.071ZM554.134 176.404C566.934 187.604 577.2 196.804 577.067 197.071C575.734 198.271 536.934 220.271 536.667 220.004C536.4 219.737 534.267 209.337 532 196.937C529.734 184.404 526.4 168.404 524.534 161.337C522.8 154.271 521.334 147.871 521.334 147.071C521.334 146.271 523.467 148.004 526.134 150.937C528.8 153.871 541.334 165.337 554.134 176.404Z" fill="white"/>
<path d="M1541.73 238.004C1506.4 262.404 1477.47 282.671 1477.33 283.071C1477.33 283.871 1492.53 294.938 1493.87 294.938C1494.13 294.938 1502.27 289.471 1511.6 282.804C1520.93 276.138 1529.47 270.271 1530.27 270.004C1531.47 269.471 1567.33 293.738 1578.53 302.404C1578.8 302.671 1576 312.671 1572.4 324.804L1565.73 346.938L1574.4 352.938C1579.2 356.271 1583.6 358.538 1584.13 358.004C1585.07 356.938 1625.33 209.604 1625.33 207.204C1625.33 206.004 1608 193.471 1606.67 193.738C1606.27 193.738 1577.07 213.738 1541.73 238.004ZM1602.13 227.071C1599.73 234.004 1594.8 249.471 1591.33 261.604C1587.73 273.738 1584.4 284.138 1583.87 284.671C1583.33 285.338 1574.4 279.871 1564.13 272.538L1545.2 259.071L1567.6 243.071C1579.87 234.404 1593.6 224.138 1598 220.538C1602.4 216.938 1606.13 214.004 1606.4 214.271C1606.53 214.404 1604.67 220.138 1602.13 227.071Z" fill="white"/>
<path d="M407.733 202.137C399.333 205.204 391.6 210.404 365.2 231.07C350.933 242.137 338.533 252.004 337.6 252.937C336.133 254.27 344.4 265.47 380.8 311.737C405.467 343.204 426.133 369.47 426.8 370.137C427.333 370.67 431.467 368.404 435.867 365.07L444 358.804L429.067 339.87C420.933 329.47 412.267 318.537 409.733 315.47L405.333 310.004L422.267 296.804C442 281.47 448.933 277.604 456.667 277.604C464.267 277.604 469.733 281.47 485.733 298.404C493.067 306.004 499.867 312.27 500.933 312.27C503.2 312.27 518.667 300.67 518.667 298.804C518.667 298.137 517.733 297.604 516.667 297.604C515.467 297.604 506.533 289.87 496.8 280.404C477.2 261.337 473.733 259.47 461.2 260.67L453.6 261.337L456.8 254.404C461.467 244.537 461.2 234.937 455.867 224.537C446.4 205.47 425.6 195.737 407.733 202.137ZM427.467 223.604C434.267 227.604 440.933 237.204 442 244.804C443.067 251.737 440.267 259.07 434.267 265.337C430 269.87 396.933 296.27 395.6 296.27C395.067 296.27 376.4 273.204 363.867 256.937C362.667 255.337 397.067 227.87 406 223.204C413.2 219.337 420.533 219.47 427.467 223.604Z" fill="white"/>
<path d="M1648 320.936C1620.53 349.87 1597.87 374.136 1597.6 374.67C1597.47 375.336 1609.73 387.736 1624.93 402.27C1640.13 416.936 1655.87 431.87 1659.73 435.47L1666.67 442.27L1673.33 435.603L1680 428.936L1651.87 402.403L1623.87 375.736L1633.73 365.736C1639.07 360.136 1656 342.403 1671.33 326.27C1686.67 310.136 1702.53 293.47 1706.53 289.203L1714 281.47L1707.07 274.936C1703.33 271.203 1699.73 268.27 1699.07 268.27C1698.53 268.27 1675.47 292.003 1648 320.936Z" fill="white"/>
<path d="M264 325.736C244.533 346.27 228.533 363.47 228.266 364.003C228.133 364.67 252 388.136 281.466 416.136L335.066 467.203L338 464.003C339.733 462.403 356.4 444.803 375.2 424.936L409.466 389.07L402.8 382.403L396.266 375.87L380.533 392.403C371.866 401.47 358.133 415.736 350 424.003L335.333 439.07L317.333 421.87L299.333 404.67L325.866 377.07L352.4 349.47L346.4 343.336L340.266 337.336L324.533 353.736C315.866 362.803 303.733 375.336 297.866 381.47L286.933 392.803L270.8 377.603L254.666 362.536L257.6 359.07C259.333 357.203 272.533 343.203 287.2 328.003L313.6 300.27L307.2 294.403C303.6 291.07 300.4 288.403 300 288.403C299.6 288.403 283.466 305.203 264 325.736Z" fill="white"/>
<path d="M1739.33 413.737C1708.53 438.003 1682.53 458.537 1681.47 459.603C1680 461.07 1680.53 462.537 1685.47 468.803C1688.67 472.803 1691.73 476.137 1692.27 476.137C1692.93 476.27 1803.73 389.87 1808.27 385.737C1809.33 384.803 1797.87 369.603 1796.27 369.603C1795.73 369.603 1770.13 389.47 1739.33 413.737Z" fill="white"/>
<path d="M196.533 404.535C193.867 408.402 191.6 412.135 191.467 413.068C191.333 414.935 249.6 494.135 263.733 511.202L273.333 522.935L262.4 518.802C249.733 514.002 146 481.602 143.467 481.602C141.2 481.602 130.133 497.602 131.467 498.802C132.4 499.602 262.267 538.135 278.8 542.535C280.267 542.935 282.933 540.268 287.2 534.402C290.533 529.735 293.333 525.468 293.333 524.935C293.333 523.468 203.733 397.602 202.667 397.602C202 397.602 199.333 400.668 196.533 404.535Z" fill="white"/>
<path d="M1783.07 473.334C1741.73 482.534 1708 490.668 1708 491.334C1708 492.134 1716.27 506.001 1718 508.001C1718.13 508.134 1728.4 505.868 1740.67 502.934C1752.93 500.001 1763.2 497.734 1763.33 497.868C1763.47 498.134 1770.53 509.201 1779.07 522.534L1794.53 546.801L1780.53 564.401C1772.93 574.134 1766.67 582.401 1766.67 582.934C1766.67 583.468 1769.2 587.868 1772.4 592.801L1778.13 601.734L1824.8 540.001C1850.53 506.001 1872 477.468 1872.53 476.534C1873.87 474.268 1862.67 456.268 1860 456.401C1858.93 456.401 1824.27 464.001 1783.07 473.334ZM1844.4 485.201C1839.33 490.934 1828.67 503.868 1820.67 513.868C1812.67 524.001 1805.73 532.268 1805.2 532.268C1804.67 532.268 1798.8 523.734 1792.13 513.201C1781.6 496.801 1780.27 494.134 1782.27 493.334C1783.6 492.801 1794.93 489.868 1807.33 486.934C1819.87 484.001 1834.53 480.268 1840 478.401C1845.47 476.668 1850.8 475.201 1851.87 475.068C1852.8 474.934 1849.47 479.601 1844.4 485.201Z" fill="white"/>
<path d="M966.933 477.735C921.867 483.602 893.067 505.202 890.933 534.935C890.533 540.535 890.933 546.669 892 550.269C894.267 558.402 902.4 567.335 911.733 571.869C921.6 576.669 937.2 577.069 946.8 572.669C961.2 566.135 969.067 554.402 967.6 541.469C966.133 529.602 959.333 522.269 946.267 518.269L940.667 516.535L948.533 512.935C968.4 503.602 998.4 506.935 1012.53 520.002C1025.07 531.735 1026 556.269 1014.4 568.135C1006.53 576.135 996.667 579.735 955.333 589.469C940 593.069 924 597.335 920 598.935C910.8 602.535 897.6 611.869 892.8 618.135C882.933 631.202 878.4 650.402 881.067 667.869C886.667 704.269 914.667 724.669 955.867 722.535C963.6 722.135 973.6 720.802 978 719.735C991.6 716.135 1006.4 707.869 1017.33 697.869L1027.33 688.669L1031.73 696.135C1043.33 715.469 1057.2 722.135 1086 722.135C1109.87 722.269 1124.67 716.935 1136.8 704.002C1148.27 691.735 1152 677.469 1152 645.335V629.602H1136.67H1121.33V644.269C1121.33 661.469 1119.07 669.069 1113.6 670.535C1109.33 671.602 1106.53 669.869 1103.73 664.135C1101.6 660.002 1101.33 654.269 1101.33 602.935C1101.2 537.869 1100.27 523.602 1095.33 512.935C1087.2 495.735 1063.47 483.202 1029.73 478.269C1015.07 476.135 981.333 475.869 966.933 477.735ZM1021.07 625.469C1020.4 648.669 1020.27 649.602 1016.53 657.202C1011.47 667.202 1004.27 672.535 994.133 673.335C984.667 674.135 978.533 671.869 972.8 665.602C967.6 659.869 966 654.002 966.933 644.135C968 633.069 970.533 630.935 1004 610.935C1012.4 605.869 1019.87 601.735 1020.53 601.735C1021.2 601.602 1021.47 612.002 1021.07 625.469Z" fill="white"/>
<path d="M1860.27 585.602C1826.4 600.935 1795.87 614.668 1792.67 616.135L1786.67 618.802L1790.53 626.935C1792.67 631.468 1794.67 635.468 1794.93 635.735C1795.6 636.402 1890.8 593.202 1898.13 588.935C1901.33 587.068 1904.13 585.602 1904.67 585.602C1905.07 585.602 1902.8 589.335 1899.47 593.868C1894.8 600.268 1832.27 697.068 1827.6 705.202C1826.8 706.402 1833.33 723.468 1835.2 725.335C1835.6 725.602 1968.8 666.002 1970.53 664.802C1971.47 664.002 1962.67 646.802 1961.6 647.468C1961.07 647.735 1941.07 656.802 1917.33 667.602C1893.6 678.268 1869.2 689.602 1863.07 692.802C1856.93 696.002 1852 698.402 1852 698.135C1852 698.002 1855.73 692.802 1860.4 686.668C1869.33 674.802 1929.33 581.202 1930.27 577.735C1930.67 576.002 1923.47 557.602 1922.27 557.602C1922.13 557.602 1894.27 570.268 1860.27 585.602Z" fill="white"/>
<path d="M60.133 646.538C57.0663 654.538 56.533 657.338 57.733 658.538C70.7997 671.071 174.133 761.338 174.8 760.538C175.333 760.004 177.333 755.871 179.2 751.204L182.533 742.938L168.933 731.071C161.466 724.538 153.6 717.871 151.466 716.004L147.6 712.804L158.266 685.738L168.933 658.538L182.8 659.071C190.4 659.204 200.8 659.471 205.866 659.471L215.2 659.604L219.066 649.871C221.2 644.538 222.8 640.004 222.533 639.738C222 639.204 93.0663 636.271 75.0663 636.271H64.133L60.133 646.538ZM110 654.938C124.666 655.871 140 656.938 144.133 657.338L151.6 658.271L143.466 679.204C139.066 690.804 134.8 700.271 134.266 700.271C133.733 700.271 124.666 692.938 114.266 683.871C103.866 674.938 91.4663 664.671 86.6663 661.071C74.933 652.271 74.533 651.738 79.333 652.671C81.5997 653.204 95.333 654.138 110 654.938Z" fill="white"/>
<path d="M1844 745.87C1844.13 748.403 1847.73 763.07 1848.4 763.736C1848.8 764.136 1858.8 765.47 1870.67 766.803C1882.53 768.27 1892.67 769.87 1893.33 770.403C1894.13 771.336 1906.67 823.47 1906.67 826.003C1906.67 826.403 1898.13 831.87 1887.73 838.27C1877.2 844.803 1868.53 850.136 1868.27 850.27C1867.47 850.936 1872.8 871.07 1873.73 871.203C1874.53 871.336 2001.47 789.07 2005.2 786.003C2006.27 785.203 2000.8 764.003 1999.47 763.47C1997.73 762.936 1849.2 744.27 1846.13 744.27C1844.93 744.27 1844 745.07 1844 745.87ZM1937.07 774.403C1948.27 775.603 1964.13 776.936 1972.4 777.47L1987.33 778.27L1976.67 784.003C1970.8 787.07 1956.13 795.87 1944 803.47C1931.87 811.07 1921.87 817.203 1921.73 816.936C1921.47 816.803 1919.2 807.47 1916.67 796.136C1914 784.803 1911.6 774.536 1911.2 773.203C1910.53 771.336 1911.07 770.936 1913.6 771.47C1915.33 771.87 1925.87 773.203 1937.07 774.403Z" fill="white"/>
<path d="M145.467 804.535C140.8 824.535 136.667 841.335 136.267 841.735C135.734 842.268 108.667 836.402 76.0003 828.802C43.3336 821.335 15.067 814.668 13.2003 814.268C9.73363 813.468 9.60029 813.735 7.46696 823.068C6.26696 828.402 5.60029 832.935 5.86696 833.335C6.66696 834.135 149.6 867.068 150 866.668C150.534 866.002 170.667 778.402 170.934 775.068C171.334 772.268 170.534 771.735 164 770.135C160 769.202 156 768.402 155.2 768.268C154.4 768.268 150 784.535 145.467 804.535Z" fill="white"/>
<path d="M1221.33 818.804V838.671L1235.73 839.204C1243.87 839.604 1251.6 840.537 1253.73 841.604C1260.93 845.071 1261.33 847.471 1261.33 886.271V921.871L1251.73 912.937C1234.27 896.804 1216.4 889.604 1194 889.604C1174.27 889.604 1158.13 894.937 1142.53 906.404C1123.73 920.137 1109.6 948.537 1104.53 983.071C1101.6 1002.94 1102.53 1039.2 1106.4 1056.94C1113.87 1091.47 1129.2 1114.14 1152.67 1125.74C1166.13 1132.27 1178.13 1134.94 1196 1134.94C1225.87 1134.94 1240.67 1127.6 1261.73 1102.94L1268 1095.6V1111.2V1126.94H1321.33H1374.67V1107.74V1088.67L1364.8 1087.87C1353.87 1087.07 1350.27 1085.6 1347.73 1081.2C1346.4 1078.94 1345.87 1048.27 1345.33 938.937L1344.67 799.604L1283.07 799.204L1221.33 798.937V818.804ZM1234.93 934.937C1253.87 940.271 1262.8 970.404 1260.93 1022.94C1260 1048.8 1257.73 1062.14 1252.67 1073.34C1246.53 1086.8 1238.8 1092.67 1227.2 1092.67C1210.67 1092.67 1199.47 1078.27 1194.53 1050.94C1192.13 1037.34 1192 985.071 1194.4 974.271C1199.87 949.337 1207.33 938.004 1220.67 934.804C1226.53 933.471 1229.47 933.471 1234.93 934.937Z" fill="white"/>
<path d="M924.266 889.601C890.933 894.267 860.4 910.267 843.333 932.001C834.533 943.067 826.933 958.534 823.066 973.334C819.866 985.067 819.6 988.534 819.6 1011.6C819.6 1034.67 819.866 1038.13 822.933 1049.73C837.466 1103.47 883.466 1134.8 948 1134.8C1004.67 1134.8 1048.93 1109.47 1066.93 1066.67C1074.8 1047.87 1076.53 1038 1076.53 1010.93C1076.4 990.001 1076 984.667 1073.6 976.001C1067.07 952.001 1059.6 938.534 1044.53 923.601C1028.4 907.601 1008.67 897.067 984 891.467C973.6 889.067 936.133 888.001 924.266 889.601ZM964.666 933.601C981.066 940.667 987.066 961.601 987.066 1011.6C987.2 1073.6 978 1092.53 948 1092.53C917.866 1092.53 908.8 1073.6 908.8 1011.6C908.8 955.201 916.133 935.601 939.066 930.934C946.266 929.467 957.866 930.667 964.666 933.601Z" fill="white"/>
<path d="M1497.6 889.602C1464.93 894.269 1435.07 909.735 1417.73 931.069C1399.87 952.802 1390.53 986.135 1392.53 1019.87C1394.67 1055.74 1405.07 1080.27 1427.2 1101.2C1449.2 1122.14 1476.93 1132.8 1514 1134.54C1542.27 1135.87 1566.13 1131.34 1588.67 1120.27C1621.73 1104.14 1642 1076.8 1648.8 1039.2C1651.2 1025.6 1651.2 998.002 1648.67 983.869C1640.53 937.335 1610.4 905.202 1563.07 892.802C1552.27 890.002 1546.13 889.335 1528 888.935C1515.87 888.669 1502.27 888.935 1497.6 889.602ZM1538 933.602C1547.73 937.869 1552.8 944.802 1556.67 959.735C1563.73 986.935 1562.4 1049.07 1554.13 1071.87C1549.33 1085.47 1538.93 1092.4 1523.2 1092.54C1500.4 1092.67 1490.67 1083.6 1485.33 1057.07C1482.93 1045.47 1481.87 1014.27 1482.93 992.269C1484.93 950.269 1492.27 935.069 1512.4 930.935C1519.73 929.469 1531.33 930.669 1538 933.602Z" fill="white"/>
<path d="M542.134 891.071C520.4 893.337 505.867 900.804 489.734 918.004L480 928.271V912.271V896.271H425.334H370.667V916.271V936.271H380.667C393.334 936.271 399.067 938.537 401.2 944.271C403.467 950.804 403.2 1074.4 400.934 1078.94C398.267 1084.27 391.334 1086.94 380.4 1086.94H370.667V1106.94V1126.94H438.667H506.667V1106.94V1086.94H503.334C498.134 1086.94 491.067 1083.47 489.067 1080C486.667 1075.74 485.734 985.737 488 970.404C491.467 946.137 500.8 934.937 517.334 934.937C529.067 934.937 536.134 939.604 540.934 950.271C543.067 955.071 543.334 961.204 543.734 1012.94C544 1050.8 543.734 1071.87 542.8 1075.07C540.8 1081.74 537.467 1084.27 528.134 1086L520 1087.6V1107.2V1126.94L585.067 1126.67L650 1126.27L650.4 1106.8L650.8 1087.2L643.334 1086.27C638.534 1085.74 634.667 1084.27 632.267 1082.27L628.667 1079.2V1022C628.667 970.404 628.934 964.271 631.067 958.004C636.8 941.871 646.534 934.271 660.667 935.204C674 936.004 680.667 942.404 683.867 957.337C686.134 968.404 685.867 1071.07 683.467 1076.8C681.2 1082.27 676.934 1085.47 670.4 1086.54L665.334 1087.34V1107.07V1126.94H732.667H800V1107.07V1087.34L789.067 1086.67C775.867 1085.87 771.334 1084 769.334 1078.54C768.534 1076 768 1055.47 768 1023.07C768 969.204 766.667 944.537 763.2 932.271C755.067 903.871 728.134 887.871 692 890.004C668.267 891.337 649.6 899.871 632.267 917.204C626.8 922.671 622.267 926.937 622 926.671C621.867 926.404 620.267 923.604 618.667 920.404C607.734 898.671 577.734 887.204 542.134 891.071Z" fill="white"/>
<path d="M52 999.605C41.8667 1004.27 36 1013.34 36 1024.54C36 1048.54 63.0667 1060.94 80.9333 1045.2C90.8 1036.54 93.0667 1024.4 87.3333 1012.67C82.5333 1003.07 75.4667 998.538 64.8 998.005C59.4667 997.738 55.0667 998.271 52 999.605Z" fill="white"/>
<path d="M1948 999.734C1922.93 1010.53 1928.8 1049.33 1955.73 1052C1976.8 1054 1992.67 1032.93 1984.13 1014.27C1981.2 1007.73 1975.47 1001.87 1969.73 999.467C1964.13 997.067 1953.87 997.201 1948 999.734Z" fill="white"/>
<path d="M69.7333 1202C15.8667 1214.54 0 1218.67 0 1220.27C0 1223.07 20.2667 1311.47 21.2 1312.54C22 1313.47 36.9333 1310.4 38.4 1309.07C38.8 1308.54 35.3333 1291.74 30.6667 1271.6C26 1251.47 22.4 1234.8 22.8 1234.54C23.0667 1234.27 48.8 1228.14 80 1221.07C111.2 1213.87 139.2 1207.47 142.4 1206.67C148.8 1205.07 149.067 1204 146.267 1192.94C144.933 1188 143.867 1186.27 141.867 1186C140.533 1186 108 1193.2 69.7333 1202Z" fill="white"/>
<path d="M1950.93 1198.4C1908.13 1203.74 1872.8 1208.27 1872.53 1208.54C1872.27 1208.8 1870.93 1213.87 1869.6 1219.74L1867.07 1230.54L1933.2 1273.87L1999.33 1317.2L2000.8 1312.4C2001.6 1309.6 2002.8 1305.07 2003.2 1302L2004.13 1296.54L1984.8 1284.27C1974.27 1277.6 1965.73 1271.34 1966 1270.54C1966.27 1269.6 1969.33 1256.94 1972.8 1242.27C1976.13 1227.6 1979.07 1215.47 1979.2 1215.34C1979.2 1215.34 1989.2 1214.14 2001.33 1212.94C2013.47 1211.74 2023.73 1210.27 2024.13 1209.87C2025.2 1208.67 2029.87 1189.6 2029.2 1189.07C2028.93 1188.94 1993.6 1193.07 1950.93 1198.4ZM1961.33 1218.94C1961.33 1219.87 1952.8 1257.34 1951.6 1262C1951.47 1262.54 1942 1257.07 1930.67 1249.87C1919.33 1242.67 1904.67 1233.74 1898.13 1230.14L1886.4 1223.6L1906.8 1222C1918.13 1221.2 1932.13 1219.87 1938 1219.2C1952.8 1217.47 1961.33 1217.34 1961.33 1218.94Z" fill="white"/>
<path d="M1081.33 1210.8C1063.2 1216.4 1051.87 1231.34 1051.87 1249.6C1051.73 1290 1104.4 1305.47 1127.47 1271.87C1135.2 1260.67 1136.4 1245.07 1130.53 1232.8C1126.67 1224.67 1116.67 1215.34 1108.4 1212.27C1101.07 1209.6 1087.87 1208.8 1081.33 1210.8Z" fill="white"/>
<path d="M1297.6 1301.6C1262.67 1306.54 1232.53 1322 1215.33 1344C1206.53 1355.07 1198.93 1370.54 1195.07 1385.34C1191.87 1396.94 1191.6 1400.8 1191.47 1422.94C1191.33 1442.54 1191.87 1449.6 1193.73 1457.6C1200.67 1486.14 1216 1509.07 1238.13 1524.4C1248 1531.07 1265.33 1538.8 1279.33 1542.54C1291.73 1545.87 1294.53 1546 1320 1546C1345.33 1546 1348.27 1545.74 1360.4 1542.54C1400.93 1531.74 1430 1506.4 1441.87 1471.47C1447.2 1455.74 1448.67 1444.94 1448.67 1422.94C1448.53 1399.87 1446.67 1388.54 1440 1371.34C1427.07 1337.74 1396.93 1313.2 1357.6 1304.14C1344.27 1301.07 1311.2 1299.74 1297.6 1301.6ZM1333.33 1344.54C1337.33 1345.6 1341.07 1348 1344.8 1351.74C1355.2 1362 1359.07 1381.74 1359.07 1424.27C1359.07 1485.74 1349.87 1504.54 1319.87 1504.67C1306.8 1504.8 1296.8 1500.4 1291.47 1492.14C1283.47 1480.27 1279.07 1448.4 1280.4 1412.94C1281.33 1388.94 1282.8 1378.14 1286.8 1365.87C1293.47 1345.6 1309.07 1338.54 1333.33 1344.54Z" fill="white"/>
<path d="M1845.87 1308.94C1843.87 1313.74 1842.53 1317.87 1842.8 1318.14C1844 1319.2 1939.73 1357.47 1946.93 1359.74C1951.07 1360.94 1954.27 1362.4 1954 1362.94C1953.73 1363.47 1948.8 1364.27 1943.2 1364.8C1934.93 1365.47 1824.4 1386.54 1815.73 1389.07C1814.53 1389.47 1812.67 1391.87 1811.6 1394.67C1810.4 1397.34 1808.67 1401.74 1807.47 1404.4L1805.47 1409.34L1874.13 1436.94C1912.13 1452.27 1943.33 1464.14 1943.87 1463.47C1946 1460.94 1950.67 1447.74 1949.73 1446.94C1948.13 1445.6 1856.53 1409.07 1846 1405.47L1836.67 1402.4L1848.67 1400.67C1855.33 1399.74 1887.47 1393.74 1920.27 1387.34L1979.73 1375.74L1983.2 1366.94C1985.07 1362.14 1986.67 1357.6 1986.67 1356.94C1986.67 1356.14 1957.73 1343.87 1922.4 1329.6C1886.93 1315.47 1856.13 1303.07 1853.87 1302L1849.6 1300.4L1845.87 1308.94Z" fill="white"/>
<path d="M882.001 1303.47C862.401 1307.34 850.534 1313.6 835.201 1328.54L824.401 1338.94L819.467 1331.07C813.601 1321.6 806.134 1314.8 796.001 1310C784.934 1304.8 775.601 1303.07 757.867 1302.94C728.801 1302.94 712.267 1309.34 693.734 1327.87L682.801 1338.8L682.401 1323.87L682.001 1308.94H627.334H572.667L572.267 1328.54L571.867 1348.27H580.934C593.867 1348.27 599.467 1350.14 602.267 1355.34C604.401 1359.2 604.667 1365.07 604.667 1422.94C604.667 1457.74 604.267 1487.87 603.601 1489.87C602.001 1495.74 596.934 1498.14 584.134 1498.94L572.667 1499.6V1518.94V1538.27L640.401 1538.67L708.001 1538.94V1518.94V1498.94H704.667C698.801 1498.94 692.134 1495.34 690.401 1491.34C688.401 1486.27 687.334 1413.6 689.067 1392.27C691.601 1361.34 699.334 1348.67 716.667 1347.2C730.401 1346.14 739.601 1352.4 743.734 1365.6C745.734 1372 746.001 1379.87 746.001 1428.94C746.001 1490 745.734 1491.87 738.534 1495.74C736.401 1496.8 732.001 1498 728.667 1498.54L722.667 1499.34V1519.07V1538.94H787.334H852.001V1519.07V1499.34L845.201 1498.54C836.267 1497.47 832.401 1494.8 830.801 1488.67C828.934 1482 828.934 1391.74 830.801 1380.27C834.134 1359.07 845.201 1346.94 860.934 1346.94C872.801 1346.94 880.934 1353.47 884.667 1365.87C887.734 1376.27 887.601 1485.2 884.534 1491.07C882.401 1495.34 875.734 1498.94 870.001 1498.94H866.667V1518.94V1538.94H934.667H1002.67V1518.94V1498.94H992.667C986.667 1498.94 980.667 1498.14 977.467 1496.8C972.667 1494.94 972.001 1494.14 970.801 1488.14C969.867 1484 969.334 1460.14 969.334 1425.87C969.334 1363.07 968.134 1349.74 961.334 1335.34C954.534 1320.67 941.734 1310.4 924.001 1305.07C913.867 1302 893.467 1301.2 882.001 1303.47Z" fill="white"/>
<path d="M1021.33 1328.94V1349.6H1033.33C1047.87 1349.6 1054.13 1351.74 1055.6 1357.2C1056.13 1359.2 1056.67 1389.74 1056.67 1424.94C1056.67 1475.74 1056.27 1489.6 1054.93 1492C1052.13 1496.8 1045.47 1498.94 1032.67 1498.94H1021.33V1518.94V1538.94H1096H1170.67V1518.94V1498.94H1161.47C1150.8 1498.94 1144.53 1497.07 1142.27 1493.07C1141.07 1490.94 1140.53 1467.87 1140 1399.6L1139.33 1308.94L1080.4 1308.54L1021.33 1308.27V1328.94Z" fill="white"/>
<path d="M111.334 1341.73C81.3336 1342.4 50.8003 1343.07 43.7336 1343.2L30.9336 1343.6L34.5336 1352.93L38.1336 1362.27H61.3336H84.4003L92.0003 1381.6C96.0003 1392.27 100.667 1404.4 102.267 1408.53L105.2 1416.13L88.9336 1429.73C80.0003 1437.2 72.1336 1443.87 71.4669 1444.4C70.2669 1445.47 76.9336 1465.6 78.5336 1465.6C79.0669 1465.6 191.734 1367.47 197.067 1362.27C197.334 1362.13 195.6 1357.07 193.334 1351.07L189.2 1340.27L177.6 1340.53C171.2 1340.53 141.467 1341.2 111.334 1341.73ZM167.2 1365.33C161.467 1369.6 148.4 1380.13 138.134 1388.67C128 1397.2 119.334 1404.27 118.8 1404.27C118.4 1404.27 114.4 1394.8 109.867 1383.2C103.067 1365.47 102.134 1362.13 103.867 1361.33C105.067 1360.8 114.667 1360.4 125.334 1360.27C136 1360.13 149.734 1359.6 156 1359.07C162.267 1358.4 169.734 1357.87 172.534 1357.87L177.867 1357.6L167.2 1365.33Z" fill="white"/>
<path d="M201.333 1533.07C176.8 1568 156.4 1597.07 156.266 1597.74C155.733 1599.2 167.6 1616.27 169.2 1616.27C171.066 1616.27 317.333 1572.67 318.133 1571.87C318.933 1571.07 308.266 1554.94 306.933 1554.94C306.533 1554.94 283.733 1562.14 256.133 1571.07C213.6 1584.67 194.933 1590.94 179.333 1597.07C177.733 1597.74 180.133 1594 185.466 1587.6C190.266 1581.74 208.666 1556.94 226.533 1532.4L258.933 1488L252.533 1478.8C249.066 1473.74 246.133 1469.6 246.133 1469.6C246 1469.6 225.866 1498.27 201.333 1533.07Z" fill="white"/>
<path d="M1767.6 1476.54C1766.53 1478.27 1763.87 1482.67 1761.6 1486.54L1757.47 1493.47L1808.13 1554.27C1836.13 1587.74 1859.2 1614.94 1859.33 1614.67C1860.27 1613.74 1869.33 1597.74 1869.33 1597.07C1869.33 1596.8 1862.67 1588.8 1854.67 1579.47C1846.53 1570.14 1840.13 1562 1840.27 1561.6C1840.53 1561.07 1846.93 1549.74 1854.67 1536.4C1863.6 1520.94 1869.33 1512.27 1870.67 1512.27C1871.87 1512.27 1882 1514.14 1893.2 1516.4C1904.4 1518.67 1914.13 1520 1914.67 1519.34C1915.2 1518.8 1917.87 1514.4 1920.4 1509.6L1925.2 1500.8L1848.93 1487.74C1806.93 1480.4 1772 1474.27 1771.07 1474C1770.27 1473.6 1768.67 1474.8 1767.6 1476.54ZM1794 1496.14C1799.87 1497.6 1814.27 1500.54 1826 1502.94C1837.73 1505.2 1848.4 1507.47 1849.6 1508C1851.73 1508.8 1850.53 1511.47 1840.8 1528.27C1834.67 1538.8 1829.2 1547.6 1828.53 1547.74C1827.87 1548 1820.53 1540.14 1812.4 1530.54C1804.13 1520.8 1793.07 1508.27 1787.73 1502.4C1782 1496.27 1779.2 1492.27 1780.67 1492.67C1782.13 1493.07 1788.13 1494.67 1794 1496.14Z" fill="white"/>
<path d="M1708.67 1561.87C1705.87 1565.6 1703.6 1569.6 1703.47 1570.67C1703.33 1572.4 1717.33 1583.6 1791.2 1640.67L1819.07 1662.14L1822.93 1657.47C1825.07 1655.07 1828 1651.34 1829.33 1649.47L1831.87 1646.14L1775.07 1602.14C1743.87 1578 1717.2 1557.6 1716 1556.67C1714.13 1555.34 1713.07 1556.14 1708.67 1561.87Z" fill="white"/>
<path d="M284.667 1631.73C259.733 1655.6 235.733 1678.67 231.467 1682.93L223.467 1690.8L239.067 1707.2C247.6 1716.27 264.267 1733.73 276.267 1746.27L298.133 1768.8L304.4 1763.07C307.867 1759.87 310.667 1756.53 310.667 1755.73C310.533 1754.93 297.067 1740.4 280.533 1723.6L250.667 1692.93L268.267 1676C278 1666.67 286.4 1658.93 286.933 1658.93C287.333 1658.93 299.6 1671.2 314.133 1686.27L340.533 1713.73L346.533 1707.6L352.667 1701.6L344.533 1693.33C340.133 1688.67 328.267 1676.4 318.133 1665.87C308.133 1655.47 300 1646.4 300.267 1645.87C300.533 1645.33 307.6 1638.13 316.133 1629.87L331.6 1614.93L360.8 1645.2C376.8 1662 390.267 1675.73 390.667 1676C391.067 1676.13 394.133 1673.47 397.6 1670L403.733 1663.6L367.733 1626.27C348 1605.73 331.467 1588.8 330.933 1588.67C330.4 1588.4 309.6 1607.87 284.667 1631.73Z" fill="white"/>
<path d="M1624.93 1656.94L1618.53 1663.87L1635.6 1680.54C1644.93 1689.6 1669.07 1712.8 1689.07 1732.14L1725.6 1767.07L1745.73 1746C1756.8 1734.4 1772.13 1718.67 1779.6 1710.94L1793.33 1696.8L1786.67 1690.27L1779.87 1683.6L1752.93 1711.34L1726 1739.07L1679.47 1694.4C1653.73 1669.74 1632.53 1649.6 1632.13 1649.74C1631.6 1649.87 1628.4 1653.07 1624.93 1656.94Z" fill="white"/>
<path d="M404.933 1706C352.4 1773.87 332 1800.27 332 1800.8C332 1800.94 335.6 1804 339.867 1807.34L347.733 1813.6L366.667 1788.94L385.6 1764.4L400.533 1775.74C423.6 1793.47 430.667 1801.34 430.667 1809.34C430.667 1814.67 426.267 1823.87 417.2 1837.87C412 1845.74 407.733 1853.74 407.6 1855.74C407.333 1858.4 409.067 1860.4 415.6 1865.74L423.867 1872.4L425.2 1867.2C426 1864.4 429.733 1857.07 433.6 1850.8C450 1824.27 452.4 1815.6 446.667 1804.14L443.867 1798.8L448.933 1799.87C463.333 1802.94 473.733 1800 483.733 1789.87C500 1773.6 500.933 1750.27 485.867 1733.6C483.067 1730.54 467.733 1717.87 451.733 1705.6L422.667 1683.07L404.933 1706ZM458.267 1733.2C476.667 1747.74 480 1756.67 472 1770.54C463.6 1785.07 448.667 1789.2 435.2 1780.8C430.4 1777.87 399.867 1754.94 396.267 1751.6C396 1751.34 403.067 1741.87 412 1730.4L428.133 1709.47L437.067 1716.54C442 1720.4 451.6 1727.87 458.267 1733.2Z" fill="white"/>
<path d="M1552.4 1719.07C1547.73 1722.8 1544 1726.4 1544 1727.07C1544 1728.4 1592 1875.33 1592.8 1876.13C1593.2 1876.53 1609.33 1864.27 1609.33 1863.47C1609.33 1863.33 1606 1853.73 1602 1842.27C1598 1830.67 1594.93 1820.8 1595.33 1820.27C1596.67 1818 1639.07 1785.2 1640.53 1785.2C1641.47 1785.2 1650.13 1790.4 1659.87 1796.67C1669.47 1803.07 1678 1808.27 1678.8 1808.27C1679.47 1808.27 1683.6 1805.47 1688 1802C1694.13 1797.07 1695.6 1795.2 1694.27 1794.13C1692.53 1792.4 1564.13 1713.6 1562 1712.8C1561.33 1712.53 1556.93 1715.33 1552.4 1719.07ZM1600.27 1757.87C1614 1766.93 1625.2 1774.67 1624.93 1775.2C1624.53 1776.53 1590.8 1802.93 1589.47 1802.93C1588.93 1802.93 1585.2 1793.47 1581.33 1781.87C1575.33 1764.4 1571.47 1754.13 1562.93 1733.6C1562.53 1732.53 1565.07 1733.87 1568.67 1736.67C1572.4 1739.33 1586.53 1748.93 1600.27 1757.87Z" fill="white"/>
<path d="M1454.4 1785.87L1404.13 1815.34L1407.07 1820.27C1414.27 1832.14 1411.47 1832.27 1434.4 1818.67C1446.13 1811.74 1455.33 1807.07 1456 1807.74C1456.53 1808.4 1466.53 1825.07 1478 1844.94C1489.6 1864.67 1504 1889.47 1510.27 1900L1521.47 1919.07L1529.73 1914.4C1534.27 1911.87 1538.13 1909.2 1538.27 1908.67C1538.53 1908.14 1524 1882.4 1506 1851.74C1488 1820.94 1473.47 1795.74 1473.73 1795.6C1473.87 1795.47 1482.4 1790.4 1492.67 1784.4C1502.93 1778.54 1512.27 1773.07 1513.33 1772.27C1515.07 1771.2 1514.67 1770 1511.33 1763.6C1509.07 1759.6 1506.8 1756.27 1506 1756.27C1505.33 1756.4 1482 1769.6 1454.4 1785.87Z" fill="white"/>
<path d="M512.666 1839.47C479.733 1866.94 452.533 1889.87 452.4 1890.54C452.133 1891.07 456 1893.74 461.066 1896.4L470 1901.34L486.666 1886.8C495.866 1878.8 503.866 1872.27 504.533 1872.27C506.4 1872.27 554.666 1900.4 554.666 1901.47C554.666 1902.14 552.933 1911.47 550.666 1922.27C548.533 1933.07 546.666 1942.94 546.666 1944.14C546.666 1946.54 564 1956.94 565.333 1955.34C566.266 1954.27 592.133 1805.34 592 1802C592 1800.67 575.2 1789.6 573.2 1789.6C572.8 1789.6 545.6 1812 512.666 1839.47ZM572 1819.6C570.533 1824.67 566.8 1841.34 563.866 1856.54C558.4 1883.87 558.266 1884.27 555.466 1882.54C553.866 1881.47 545.066 1876.27 535.733 1870.94C526.266 1865.47 518.666 1860.67 518.666 1860.14C518.666 1859.6 528.666 1850.54 541.066 1839.87C553.333 1829.2 565.733 1818.14 568.533 1815.07C571.466 1812.14 574 1809.87 574.266 1810C574.4 1810.27 573.466 1814.54 572 1819.6Z" fill="white"/>
<path d="M1368.13 1829.6C1363.07 1832 1360 1834.27 1360.4 1835.34C1365.33 1848.14 1420.8 1968.27 1421.73 1968.27C1424.27 1968.27 1438.67 1961.2 1438.67 1960C1438.67 1957.87 1378.8 1826.27 1377.73 1826C1377.2 1825.74 1372.8 1827.47 1368.13 1829.6Z" fill="white"/>
<path d="M709.2 1861.87C708.4 1865.07 699.733 1896.4 689.867 1931.6C680 1966.8 672 1996.27 672 1997.2C672 1999.07 689.467 2004.67 690.8 2003.2C691.333 2002.67 695.2 1989.6 699.467 1974.27C703.733 1958.8 707.333 1946.14 707.467 1945.87C707.6 1945.6 717.867 1948.27 730.267 1951.87C749.467 1957.34 754.4 1958.27 764.667 1958.27C775.467 1958.27 777.333 1957.87 783.867 1954.27C797.2 1946.94 805.333 1931.87 805.467 1914.27C805.733 1895.2 795.333 1880.67 776.8 1874.14C768.4 1871.07 715.067 1856.27 712.8 1856.27C711.6 1856.27 710.133 1858.4 709.2 1861.87ZM746.4 1883.6C773.333 1891.2 778.667 1894 783.467 1903.2C787.6 1911.07 784.933 1925.07 777.733 1933.47C772.8 1939.34 763.333 1942.54 755.733 1940.94C741.733 1938.14 712 1929.07 712.4 1927.74C712.667 1926.94 715.867 1915.6 719.467 1902.67C723.467 1888 726.667 1878.94 727.733 1878.94C728.533 1878.94 736.933 1881.07 746.4 1883.6Z" fill="white"/>
<path d="M1214.67 1881.34L1206 1883.6L1196.27 1961.47C1191.07 2004.27 1186.93 2039.6 1187.2 2040C1187.6 2040.27 1192.13 2039.6 1197.33 2038.27C1208.27 2035.6 1207.07 2038.27 1210 2010.27C1211.2 1999.34 1212.27 1990.27 1212.4 1990.14C1215.6 1988.8 1268.27 1977.6 1269.07 1978.14C1269.73 1978.54 1275.2 1986.94 1281.33 1996.94C1287.47 2006.94 1292.8 2015.2 1293.2 2015.47C1294.93 2016.67 1314 2011.2 1313.6 2009.6C1313.47 2008.8 1294.4 1979.2 1271.2 1943.87C1238.13 1893.34 1228.53 1879.6 1226.27 1879.34C1224.67 1879.2 1219.47 1880.14 1214.67 1881.34ZM1227.47 1908.94C1230.27 1914 1238.67 1928.14 1246.27 1940.27C1253.73 1952.27 1259.73 1962.4 1259.47 1962.54C1259.33 1962.67 1249.2 1965.2 1236.93 1968C1214.67 1973.2 1214.67 1973.2 1214.67 1970.27C1214.67 1968.67 1215.87 1956.67 1217.33 1943.47C1218.8 1930.4 1220 1914.54 1220 1908.27C1220 1901.6 1220.53 1897.6 1221.2 1898.27C1221.87 1899.07 1224.67 1903.74 1227.47 1908.94Z" fill="white"/>
<path d="M831.466 1960.54C824.266 1999.6 818 2032.54 817.733 2033.74C817.2 2035.47 818.8 2036.27 825.866 2037.6C830.533 2038.54 835.333 2038.94 836.266 2038.67C838.533 2037.87 865.333 1894.67 863.466 1893.47C862.666 1892.94 859.6 1892.27 856.666 1891.74C853.733 1891.2 849.866 1890.54 848 1890.14L844.666 1889.6L831.466 1960.54Z" fill="white"/>
<path d="M1083.07 1902L1030.67 1906V1910.94C1030.67 1913.74 1031.07 1917.74 1031.47 1919.87L1032.27 1923.74L1069.6 1920.8C1090.13 1919.2 1108.93 1917.47 1111.6 1916.94C1116.93 1916 1117.2 1915.47 1107.6 1928.14C1103.87 1932.94 1086 1959.34 1067.73 1986.67L1034.67 2036.27L1035.47 2045.74L1036.4 2055.34L1044.53 2054.54C1049.07 2054.14 1075.07 2052.14 1102.4 2050.14L1152 2046.4V2037.34C1152 2029.2 1151.73 2028.27 1149.47 2028.27C1144 2028.27 1074.93 2033.74 1066.67 2034.8C1061.87 2035.47 1057.73 2035.74 1057.47 2035.47C1057.33 2035.34 1060.93 2030.14 1065.6 2024C1070.4 2017.87 1088.8 1990.8 1106.53 1963.74L1138.8 1914.67L1138.4 1906.54C1138.13 1902.14 1137.47 1898.4 1136.67 1898.27C1136 1898.14 1111.73 1899.74 1083.07 1902Z" fill="white"/>
<path d="M898.133 1903.07C897.733 1905.34 897.333 1909.2 897.333 1911.74C897.333 1915.74 897.733 1916.27 901.733 1916.8C909.066 1918 961.866 1921.6 971.866 1921.6C977.066 1921.6 981.333 1922.14 981.333 1922.67C981.333 1923.34 979.466 1925.07 977.333 1926.8C975.066 1928.4 952.933 1951.87 928.133 1979.07L882.933 2028.27L882.4 2037.34C882 2042.27 881.866 2046.54 882.133 2046.8C882.933 2047.74 996.666 2056 997.6 2055.2C998 2054.67 998.666 2050.67 998.8 2046.27L999.2 2038.27L991.866 2037.34C987.866 2036.94 970 2035.6 952 2034.27C934 2033.07 916.133 2031.87 912.133 2031.47L905.066 2030.67L916.4 2019.87C922.666 2013.87 945.333 1989.6 966.533 1965.87L1005.33 1922.8V1914.8C1005.33 1907.74 1005.07 1906.94 1002.67 1906.94C999.2 1906.94 916.666 1900.67 906.533 1899.6L899.066 1898.8L898.133 1903.07Z" fill="white"/>
</svg>
